<?xml version="1.0" encoding="UTF-8"?>
<svg id="Layer_1" xmlns="http://www.w3.org/2000/svg" version="1.1" viewBox="0 0 512 512">
  <!-- Generator: Adobe Illustrator 29.7.1, SVG Export Plug-In . SVG Version: 2.1.1 Build 8)  -->
  <defs>
    <style>
      .st0 {
        fill: #191919;
        fill-rule: evenodd;
      }
    </style>
  </defs>
  <path class="st0" d="M240,320c0-12.74-5.06-24.94-14.06-33.94-8.99-9.01-21.2-14.06-33.94-14.06h-112c-12.74,0-24.94,5.06-33.94,14.06-9.01,8.99-14.06,21.2-14.06,33.94v112c0,12.74,5.06,24.94,14.06,33.94,8.99,9.01,21.2,14.06,33.94,14.06h112c12.74,0,24.94-5.06,33.94-14.06,9.01-8.99,14.06-21.2,14.06-33.94v-112ZM480,320c0-12.74-5.06-24.94-14.06-33.94-8.99-9.01-21.2-14.06-33.94-14.06h-112c-12.74,0-24.94,5.06-33.94,14.06-9.01,8.99-14.06,21.2-14.06,33.94v112c0,12.74,5.06,24.94,14.06,33.94,8.99,9.01,21.2,14.06,33.94,14.06h112c12.74,0,24.94-5.06,33.94-14.06,9.01-8.99,14.06-21.2,14.06-33.94v-112ZM409.94,236.69l66.75-66.75c18.74-18.74,18.74-49.14,0-67.87l-66.75-66.75c-18.74-18.74-49.14-18.74-67.87,0l-66.75,66.75c-18.74,18.74-18.74,49.14,0,67.87l66.75,66.75c18.74,18.74,49.14,18.74,67.87,0ZM240,80c0-12.74-5.06-24.94-14.06-33.94-8.99-9.01-21.2-14.06-33.94-14.06h-112c-12.74,0-24.94,5.06-33.94,14.06-9.01,8.99-14.06,21.2-14.06,33.94v112c0,12.74,5.06,24.94,14.06,33.94,8.99,9.01,21.2,14.06,33.94,14.06h112c12.74,0,24.94-5.06,33.94-14.06,9.01-8.99,14.06-21.2,14.06-33.94v-112Z"/>
</svg>