<?xml version="1.0" encoding="UTF-8"?>
<svg id="Layer_1" xmlns="http://www.w3.org/2000/svg" version="1.1" viewBox="0 0 247.36 247.36">
  <!-- Generator: Adobe Illustrator 29.7.1, SVG Export Plug-In . SVG Version: 2.1.1 Build 8)  -->
  <path d="M240.95,6.41h0c-7.35-7.35-18.82-8.51-27.52-2.82-27.48,17.97-89.98,48.89-146.32,5.27-7.54-5.83-18.2-5.28-24.94,1.46h0c-7.95,7.95-7.14,21.01,1.63,28.04,35.75,28.64,73.06,35.83,106.68,32.04L5.48,215.41c-7.31,7.31-7.31,19.16,0,26.47h0c7.31,7.31,19.16,7.31,26.47,0L176.96,96.87c-3.78,33.62,3.4,70.93,32.04,106.68,7.03,8.78,20.09,9.58,28.04,1.63h0c6.74-6.74,7.29-17.4,1.46-24.94-43.61-56.34-12.69-118.84,5.27-146.32,5.69-8.69,4.52-20.17-2.82-27.52h0Z"/>
</svg>