<?xml version="1.0" encoding="UTF-8"?>
<svg id="Layer_1" xmlns="http://www.w3.org/2000/svg" version="1.1" viewBox="0 0 247.36 227.03">
  <!-- Generator: Adobe Illustrator 29.7.1, SVG Export Plug-In . SVG Version: 2.1.1 Build 8)  -->
  <path d="M99.34,153.21c2.18.4,1.3-.31,1.75-1.19,13.82-27.13,27.44-52.96,44.68-78.17,16.97-24.82,37.03-50.86,65.48-62.85.17,1.5-.88,2.66-1.54,3.92-22.05,41.57-43.66,78.31-61.96,122.34-7.81,18.79-14.48,43.68-23.27,60.88-6.14,12.02-19.19,22.81-33,15.54-3.42-1.8-6.02-5.44-8.46-8.37-11.79-14.14-25.36-34.56-35.7-50.14-8.65-13.03-19.51-30.58-1.28-42.21,22.23-14.17,46.05,23.43,53.31,40.25Z"/>
</svg>