<?xml version="1.0" encoding="UTF-8"?>
<svg id="Layer_1" data-name="Layer 1" xmlns="http://www.w3.org/2000/svg" viewBox="0 0 400 400.86">
  <path d="M174.05,311.3c10.5,9.73,18.23,23.69,25.74,35.75,9.2-16.38,18.83-32.51,34.96-42.99,32.93-21.4,41.78,12.31,62.09,30.85,19.74-20.34,31.42-52.99,64.08-27.64,17.67,13.72,32.62,38.26,36.83,60.22,1.44,7.53,6.42,33.71-5.59,33.12-11.5-.57-8.54-20.38-10.3-29.35-3.49-17.72-15.23-39.07-29.6-50.12-5.28-4.06-10.73-9.23-17.37-5.34-14.19,8.32-20.72,41.67-45.06,33.1-15.84-5.58-24.87-40.17-42.3-33.78-15.27,5.6-33.88,37.13-37.35,52.75-1.51,6.81-2.39,29.33-5.49,31.35h-9.78c-2.91-1.88-4.28-24.45-5.82-31.02-1.61-6.86-4.53-15.47-7.79-21.67-4.15-7.89-24.61-32.81-33.34-32.39-12.73.62-23.64,35.69-41.77,36.53-16.33.76-28.22-24.32-37.98-34.89-8.85-5.13-15.3.67-21.81,6.16-12.78,10.78-25.39,31.25-28.67,47.59-1.49,7.45-.21,26.98-6.42,30.03-20.79,10.21-7.18-42.12-3.86-50.71,6.73-17.42,34.66-53.92,55.23-51.93,20.05,1.94,28.39,26.29,41.8,38,22.08-23.44,35.53-55.17,69.58-23.61Z"/>
  <path d="M152.74,114.24c-60.52-59.32,28.88-155.04,92.79-95.39,63.53,59.29-28.5,158.42-92.79,95.39ZM234.7,30.55c-50.29-47.81-121.98,35.1-64.37,77.37,49.94,36.64,108.79-35.14,64.37-77.37Z"/>
  <path d="M347.35,247.69c-60.17,60.11-154.56-28.63-96.48-92.15,60.17-65.81,158.82,29.88,96.48,92.15ZM300.3,150.51c-66.61-.02-66.7,100.27,0,100.27,65.04,0,65.71-100.25,0-100.27Z"/>
  <path d="M52.22,153.59c60.33-60.27,154.48,28.79,96.48,92.15-60.32,65.91-158.67-30.02-96.48-92.15ZM99.27,150.51c-65.59,0-65.34,100.24,0,100.27,66.46.02,66.91-100.27,0-100.27Z"/>
</svg>