<?xml version="1.0" encoding="UTF-8"?>
<svg id="Layer_1" data-name="Layer 1" xmlns="http://www.w3.org/2000/svg" viewBox="0 0 400 401.25">
  <path d="M272.84,312.4c-12.44,14.58,1.15,45.36-17.02,68.77-18.61,23.99-78.24,25.68-101.31,9.38-24.39-17.24-18.15-39.81-20.9-64.01-1.88-16.54-22.9-26.45-33.81-38.97-54.39-62.36-38.14-161.2,33.28-202.43,134.29-77.53,274.16,98.13,155.67,214.59-4.12,4.05-12.54,8.73-15.91,12.68ZM253.19,317.01c4.05-18.71,23.01-25.74,34.61-39.04,58.01-66.5,25.33-172.94-60.87-192.02-110.56-24.47-189.59,106.7-114.04,192.02,11.73,13.25,30.24,20.38,34.61,39.04h45.05v-84.91c-14.39-2.15-30.02-16.31-32.51-30.73-1.18-6.84-2.36-16.07,6.05-17.46,10.62-1.77,8.54,11.72,11.7,18.76,9.23,20.54,39.75,17.8,46.84-3.45,2.8-8.38-.24-21.03,14.86-13.19,6.86,20.83-11,42.45-31.35,46.08v84.91h45.05ZM151.81,332.6l-2.32,2.87c-2.06,43.85,22.58,51.92,61.32,49.2,23.51-1.65,38.17-10.99,40.43-35.81.47-5.16,1.76-12.68-2.38-16.26h-97.04Z"/>
  <path d="M325.53,2.05c2.49,2.52,2.21,6.8,1.42,9.98-.93,3.73-24.79,46.4-27.91,50.18-7.04,8.51-18.05,1.59-13.9-8.68,10.51-13.15,17.39-36.64,27.19-49.07,3.07-3.89,9.17-6.48,13.19-2.41Z"/>
  <path d="M86.33,2.15l29.19,51.39c3.1,7.59-1.96,14.42-10.14,11.92-4.77-1.45-29.84-49.25-32.34-57.64.05-7.41,7.71-9.81,13.3-5.67Z"/>
  <path d="M2.36,85.25c2.27-2.68,6.61-1.77,9.58-1.06,6.12,1.46,44.3,18.16,49.53,21.64,8.95,5.95,4.95,17.31-6.28,15.03-5.97-1.21-41.64-17.5-48.16-21.25-5.64-3.24-9.88-8.2-4.67-14.36Z"/>
  <path d="M391.41,83.33c7.76-.78,12.39,8.76,4.49,15.09-2.4,1.92-47.03,21.76-50.43,22.45-10.74,2.18-14.96-8.43-7.35-14.38l53.28-23.15Z"/>
</svg>