<?xml version="1.0" encoding="UTF-8"?>
<svg id="Capa_1" xmlns="http://www.w3.org/2000/svg" version="1.1" viewBox="0 0 512 512">
  <!-- Generator: Adobe Illustrator 29.7.1, SVG Export Plug-In . SVG Version: 2.1.1 Build 8)  -->
  <path id="Path_2520" d="M408.42,408.43h-64.15v-100.46c0-23.96-.43-54.78-33.37-54.78s-38.53,26.09-38.53,53.06v102.19h-64.13v-206.59h61.59v28.22h.85c12.57-21.46,35.9-34.28,60.76-33.37,65.02,0,76.99,42.77,76.99,98.39l-.02,113.34ZM135.86,173.59c-20.57,0-37.23-16.66-37.23-37.23s16.66-37.23,37.23-37.23,37.23,16.66,37.23,37.23c0,20.57-16.66,37.23-37.23,37.23h0M167.93,408.43h-64.21v-206.59h64.21v206.59ZM440.39,39.57H71.48c-17.43-.19-31.72,13.78-31.94,31.21v370.43c.21,17.45,14.51,31.42,31.94,31.23h368.92c17.47.21,31.83-13.76,32.06-31.23V70.76c-.26-17.47-14.61-31.45-32.06-31.21"/>
</svg>