<?xml version="1.0" encoding="UTF-8"?>
<svg id="Layer_1" xmlns="http://www.w3.org/2000/svg" version="1.1" viewBox="0 0 512 512">
  <!-- Generator: Adobe Illustrator 29.7.1, SVG Export Plug-In . SVG Version: 2.1.1 Build 8)  -->
  <defs>
    <style>
      .st0 {
        fill: #191919;
      }
    </style>
  </defs>
  <path class="st0" d="M284,424H60c-16.8,0-28-11.2-28-28s11.2-28,28-28h224c16.8,0,28,11.2,28,28s-11.2,28-28,28Z"/>
  <path class="st0" d="M452,284H60c-16.8,0-28-11.2-28-28s11.2-28,28-28h392c16.8,0,28,11.2,28,28s-11.2,28-28,28Z"/>
  <path class="st0" d="M452,144h-224c-16.8,0-28-11.2-28-28s11.2-28,28-28h224c16.8,0,28,11.2,28,28s-11.2,28-28,28Z"/>
</svg>