<?xml version="1.0" encoding="UTF-8"?>
<svg id="Layer_1" data-name="Layer 1" xmlns="http://www.w3.org/2000/svg" viewBox="0 0 359 351.51">
  <path d="M190.75.16c7.58-.9,13.37,2.02,17.44,8.42v334.93c-6.29,15.64-33.91,4.25-45.44,0-20.98-7.72-45.01-22.75-61.21-38.09-4.98-4.71-18.74-23.21-22.72-24.83-5.47-2.22-13.53-.66-20.34-2.04-24.9-5.07-47.03-26.75-54.14-50.75-5.52-18.64-5.85-84.08-.61-102.73,7.28-25.92,31.59-48.08,58.32-52.16,4.65-.71,9.24.21,13.54-.44,5.59-.85,22.3-22.75,28.73-28.61C124.56,25.46,163.52,3.4,190.75.16Z"/>
  <path d="M249.4,117.61c2.63-.6,6.8-.73,9.43-.23,9.26,1.74,31.51,31.15,40.62,37.66,2.62,0,30.12-33.2,37.65-36.44,10.06-4.34,21.4.51,21.89,12.03.54,12.9-30.29,34.03-37.76,44.91-.56,3.16,30.69,30.07,34.63,36.41,8.74,14.05-3.94,27.94-18.75,21.55-10.31-4.45-27.25-29.23-37.65-36.44-2.62,0-30.12,33.19-37.65,36.44-9.35,4.04-20.71.06-21.77-10.73-1.39-14.21,29.7-34.71,37.64-46.21.67-3.81-33.58-31.25-36.59-40.05-2.28-6.68.76-17.16,8.31-18.89Z"/>
</svg>