<?xml version="1.0" encoding="UTF-8"?>
<svg id="Layer_1" data-name="Layer 1" xmlns="http://www.w3.org/2000/svg" viewBox="0 0 400 399.67">
  <path d="M3.37,371.68c-1.37-8.01-5.1-15.08-2.43-23.5,22.94-66.91,34.93-143.36,59.47-209.08,17.52-46.92,64.33-57.14,107.64-71.92,3.63-1.24,17.06-6.52,19.5-5.5l150.78,150.78c.96,2.27-13.07,39.64-15.29,45.62-14.34,38.57-23.06,67.83-65.55,82.78-35.78,12.59-78.17,22.77-115.18,33.16-26.47,7.43-61.84,20.31-87.68,24.74-8.42,1.44-18.53,1.61-26.27-2.88l131.79-130.26c31.29,6.39,53.54-31.61,30.63-55.61-23.07-24.17-63.96-2.35-56.39,29.85L3.37,371.68Z"/>
  <path d="M263.71.4c5.08-1,9.27-.24,12.92,3.54l121.6,123.53c1.37,2.38,1.98,4.73,1.71,7.5-1.13,11.66-35.01,37.1-42.93,47.75L218.99,44.26c-.72-1.94.33-2.99,1.3-4.44,3.33-4.95,29.04-30.19,34.41-34.32,2.5-1.92,5.92-4.49,9-5.1Z"/>
</svg>