<?xml version="1.0" encoding="UTF-8"?>
<svg id="Layer_1" data-name="Layer 1" xmlns="http://www.w3.org/2000/svg" viewBox="0 0 970 970">
  <defs>
    <style>
      .cls-1 {
        fill: #374856;
      }
    </style>
  </defs>
  <path class="cls-1" d="M970,485.32c-.09,11.56-4.81,22.03-12.41,29.63-7.67,7.67-18.26,12.41-29.95,12.41h-400.25s-.04.02-.04.04v399.51c0,23.24-18.41,42.7-41.64,43.09-23.71.39-43.08-18.73-43.08-42.35v-400.25s-.02-.04-.04-.04H43.09c-23.24,0-42.7-18.41-43.09-41.64-.39-23.71,18.73-43.08,42.35-43.08h400.25s.04-.02.04-.04V43.15c0-23.47,19.2-43.32,42.68-43.15,11.56.09,22.03,4.81,29.63,12.41s12.41,18.26,12.41,29.95v400.25s.02.04.04.04h399.46c23.47,0,43.32,19.2,43.15,42.68Z"/>
</svg>