<?xml version="1.0" encoding="UTF-8"?>
<svg id="Layer_1" data-name="Layer 1" xmlns="http://www.w3.org/2000/svg" viewBox="0 0 500 421.82">
  <path d="M134.99,1.74c15.09-1.54,54.05-6.04,56.7,13.86.99,7.46.92,43.43-.97,49.62-5.1,16.68-29.62,10.4-42.7,11.56-31.43,2.78-59.61,25.79-67.47,56.55-4.81,18.84-6.7,51.23,17.89,56.91,31.4,7.25,77.05-9.06,106.22,10.04,12.79,8.37,24.03,24.85,25.69,40.19,2.97,27.36,3.32,106.65-.52,133.21-2.98,20.62-22.86,42.09-43.55,45.58-20.28,3.42-120.25,3.42-140.53,0-20.61-3.48-41.2-26.68-43.89-47.18,3.58-74.63-5.33-154.55-.24-228.56C6.45,73,63.57,9.03,134.99,1.74Z"/>
  <path d="M402.39,1.74c17.11-1.75,53.98-6.86,56.64,15.86.93,7.95,1.1,41.06-.91,47.62-5.1,16.69-29.63,10.39-42.7,11.56-37.89,3.37-68.31,34.6-70.72,72.66-1.01,15.98,1.89,35.2,19.67,40.33,18.83,5.43,56.52-.47,78.21,1.23,28.45,2.24,52.19,22.33,55.13,51.44,2.71,26.82,3.53,105.81-.44,131.27-3.08,19.76-23.66,42.17-43.59,45.54-20.28,3.42-120.24,3.42-140.53,0-21.39-3.61-41.3-25.9-43.84-47.23,3.58-75.19-5.5-155.91-.29-230.45C273.88,71.76,332.16,8.91,402.39,1.74Z"/>
</svg>