<?xml version="1.0" encoding="UTF-8"?>
<svg id="Layer_1" xmlns="http://www.w3.org/2000/svg" version="1.1" viewBox="0 0 443.73 445.34">
  <!-- Generator: Adobe Illustrator 29.7.1, SVG Export Plug-In . SVG Version: 2.1.1 Build 8)  -->
  <path d="M423.62,79.42c-4.15,3.98-30,18.24-29.16,21.98,38.08,29.56,44.37,72.19,5.56,104.67,10.75,9.63,25.72,15.37,32.45,29.12,11.34,23.13.37,47.95-23.54,56.37-31.74,11.18-44.01-12.3-60.28-34.12l-90.53,88.64c19.5,13.22,43.26,23.51,44.09,50.68.9,29.75-31.03,49.62-57.89,37.78-15.63-6.88-23.07-26.59-33.86-39.01-9.56,5.74-15.74,15.38-25.3,21.3-31.02,19.22-62.7,5.95-82.94-21.27-19.41-26.09,21.03-33.71,28.05-50.45,8.44-20.13-12.66-39.83-32.15-30.25-14.6,7.17-19.53,36.89-42.14,31.74-5.26-1.19-23.48-19.91-27.13-25.15-19.65-28.18-9.12-60.38,16.43-79.92-12.82-11.92-30.46-18.49-36.35-36.41-13.55-41.31,38.3-73.33,69.06-39.2,3.65,4.04,15,25.01,18.51,24.22l89.69-89.57c35.26-29.05,38.89,33.38,65.38,33.39,7.01,0,19.75-8.29,21.85-15.14,11.45-37.31-41.08-33.13-37.67-61.89,1.76-14.9,30.14-34.01,44.31-36.09,32.38-4.74,42.8,10.29,64.64,29.29,3.3-.7,20.8-31.42,30.35-36.97,41.16-23.96,84.51,31.91,48.56,66.28v-.02ZM252.52,61.36c24.26,12.32,48.59,31.16,38.21,61.57-4.08,11.94-13.58,20.85-25.49,24.91-32.64,11.13-46.1-15.44-62.19-37.89-7.4,11.07-34.18,29.19-39.32,39.18-.93,1.8-.93,1.9,0,3.7,5.14,9.98,31.77,27.77,39.22,39.31,19.39,29.96-35.95,34.2-35.33,62.47.18,8.25,6.85,19.12,15.26,21.04,35.63,8.16,33.3-40.59,59.36-38.96,12.61.79,40.67,38.71,52.51,46.69,3.52.62,31.99-31.49,37.99-36.28,30.29-24.19,34.13,18.78,54.14,28.02,18.73,8.65,38.49-11.93,30.33-32.19-4.7-11.67-34.34-20.17-35.33-35.26-1.3-19.99,32.43-26.41,26.95-59.05-3.5-20.81-32.84-32.19-32.88-48.97-.04-17.35,35.75-26.97,41.25-40.62,10.27-25.46-20.84-45.07-37.77-26.57-10.42,11.39-17.63,35.71-34.85,36.31-12.78.43-23.31-19.18-33.6-25.75-23.68-15.1-44.09-1.05-58.5,18.34h.03ZM161.72,224.46c3.89-3.98,28.09-18.34,27.27-22.01l-38.46-38.26c-4-.7-37.09,35.64-43.7,39.91-26.84,17.38-31.58-23.28-47.76-32.32-19.66-10.99-39.97,8.56-33.44,29.71,4,12.96,36.86,20.86,36.69,40.06-.15,17.14-28.82,23-26.35,52.23,1.32,15.66,15.14,26,25.23,36.38,11.06-11.35,16.85-26.95,32.71-32.59,28.54-10.14,58.7,12.12,55.52,42.37-2.29,21.82-19.97,30.83-35,43.46,14.05,14.82,27.55,30.2,50.42,24.32,16.57-4.26,28.81-31.43,45.51-30.73,23.2.98,28.26,56.51,61.48,40.59,10.7-5.13,14.58-16.14,11.53-27.7-4.66-17.7-44.01-25.12-42.03-45.49,1.36-13.99,41.91-42.86,40.91-48.46l-40.24-40.26c-3.74-.68-14.79,18.27-18.39,22.3-41.57,46.43-99.03-15.55-61.89-53.49h0Z"/>
</svg>