<?xml version="1.0" encoding="UTF-8"?>
<svg id="Layer_1" data-name="Layer 1" xmlns="http://www.w3.org/2000/svg" viewBox="0 0 358.33 351.58">
  <path d="M207.49.09c7.88-.76,13.78,3.48,16.42,10.85l.69,326.63c-3.55,17.66-16.18,14.92-29.7,11.46-40.94-10.48-75.13-35.49-100.72-68.5-10.54-2.52-21.56.05-32.18-1.39-25.47-3.45-49.71-26.24-57.39-50.29-6.35-19.87-6.17-88.16.71-107.76,13.32-37.99,50.05-52.81,88.27-48.79,21.19-27.22,47.65-49.9,80.27-62.38C182.15,6.73,199.15.9,207.49.09Z"/>
  <path d="M299.77,57.39c11.82-1.35,28.13,23.26,33.92,32.58,33.83,54.45,32.85,124.19-3.09,177.38-6.73,9.96-23.64,34.13-37.38,26.74-20.32-10.92,4.11-31.28,11.39-41.55,31.6-44.63,32.79-105.38,1.97-150.84-4.55-6.71-19.41-21.27-20.21-27.46-1.05-8.14,5.23-15.91,13.4-16.85Z"/>
  <path d="M271.64,245.45c-13.5,11.63-31.55.2-25.03-15.94,1.67-4.13,8.22-9.3,10.74-13.03,16.73-24.87,17.23-54.98.53-80.07-6.31-9.47-17.89-15.73-10.12-28.82,10.09-17.01,28.18,3.13,34.73,12.61,24.06,34.83,22.35,96.67-10.84,125.26Z"/>
</svg>