<?xml version="1.0" encoding="UTF-8"?>
<svg xmlns="http://www.w3.org/2000/svg" id="Layer_1" data-name="Layer 1" viewBox="0 0 24 24">
  <path d="m19.5,6h-.5v-3.5c0-1.379-1.121-2.5-2.5-2.5H4.5C2.019,0,0,2.019,0,4.5v9c0,2.481,2.019,4.5,4.5,4.5h.5v1.5c0,2.481,2.019,4.5,4.5,4.5h10c2.481,0,4.5-2.019,4.5-4.5v-9c0-2.481-2.019-4.5-4.5-4.5Zm-1.5,0H7.776L17.59,1.471c.254.269.41.631.41,1.029v3.5Zm-13.5,11c-1.93,0-3.5-1.57-3.5-3.5V4.5c0-1.93,1.57-3.5,3.5-3.5h11.723L7.033,5.241c-1.235.57-2.033,1.817-2.033,3.179v8.58h-.5Zm18.5,2.5c0,1.93-1.57,3.5-3.5,3.5h-10c-1.93,0-3.5-1.57-3.5-3.5v-11.08c0-.518.161-1.012.445-1.423.019.002.036.003.055.003h13c1.93,0,3.5,1.57,3.5,3.5v9Zm-3-7.5c0,.276-.224.5-.5.5h-4c-.276,0-.5-.224-.5-.5s.224-.5.5-.5h4c.276,0,.5.224.5.5Zm-8.5-2h-1c-.827,0-1.5.673-1.5,1.5v1c0,.827.673,1.5,1.5,1.5h1c.827,0,1.5-.673,1.5-1.5v-1c0-.827-.673-1.5-1.5-1.5Zm.5,2.5c0,.275-.225.5-.5.5h-1c-.275,0-.5-.225-.5-.5v-1c0-.275.225-.5.5-.5h1c.275,0,.5.225.5.5v1Zm8,5.5c0,.276-.224.5-.5.5h-4c-.276,0-.5-.224-.5-.5s.224-.5.5-.5h4c.276,0,.5.224.5.5Zm-8.5-2h-1c-.827,0-1.5.673-1.5,1.5v1c0,.827.673,1.5,1.5,1.5h1c.827,0,1.5-.673,1.5-1.5v-1c0-.827-.673-1.5-1.5-1.5Zm.5,2.5c0,.275-.225.5-.5.5h-1c-.275,0-.5-.225-.5-.5v-1c0-.275.225-.5.5-.5h1c.275,0,.5.225.5.5v1Z"/>
</svg>
