<?xml version="1.0" encoding="UTF-8"?>
<svg id="Layer_1" xmlns="http://www.w3.org/2000/svg" version="1.1" viewBox="0 0 40 40">
  <!-- Generator: Adobe Illustrator 30.2.1, SVG Export Plug-In . SVG Version: 2.1.1 Build 1)  -->
  <defs>
    <style>
      .st0 {
        fill: #0c0b10;
      }
    </style>
  </defs>
  <path class="st0" d="M5.65,10.33c-.44.13-.71.57-.63,1.02l.04.2.91,5.3h0c.09.53.62.86,1.14.71h0l3.89-1.14v15.31c0,.5.4.9.9.9h4.06c.5,0,.9-.4.9-.9v-4.2c0-.18.15-.33.33-.33h5.61c.18,0,.33.15.33.33v4.2c0,.5.4.9.9.9h4.06c.5,0,.9-.4.9-.9v-15.31l3.91,1.15c.52.15,1.05-.18,1.14-.71l.95-5.5c.08-.45-.19-.89-.63-1.02l-10.08-2.96c-.14-.04-.29-.02-.41.05-.23.14-.47.27-.73.38-.12.06-.25.11-.38.16-.82.31-1.76.48-2.75.48s-1.93-.17-2.75-.48c-.13-.05-.26-.1-.38-.16-.26-.11-.5-.24-.73-.38-.12-.08-.27-.1-.41-.05l-10.06,2.95h-.03ZM16.86,8.93c.95.32,2.01.51,3.14.51s2.19-.18,3.14-.51c.24-.08.47-.17.69-.27.09-.04.18.05.14.14-.19.5-.48.96-.84,1.35-.78.85-1.9,1.38-3.14,1.38s-2.36-.53-3.14-1.38c-.36-.39-.64-.85-.84-1.35-.03-.09.06-.17.14-.14.22.1.45.19.69.27h.02ZM27.66,31.63h-3.19c-.18,0-.33-.15-.33-.33v-4.2c0-.5-.4-.9-.9-.9h-6.48c-.5,0-.9.4-.9.9v4.2c0,.18-.15.33-.33.33h-3.19c-.18,0-.33-.15-.33-.33v-15.17l3.32-.97c.27-.08.54.12.54.4v6.51c0,.5.4.9.9.9h6.48c.5,0,.9-.4.9-.9v-6.51c0-.28.27-.48.54-.4l3.32.97v15.17c0,.18-.15.33-.33.33h-.02ZM14.85,8.68c.06-.02.12.02.13.07.18.63.49,1.21.87,1.71.29.37.63.71,1,.99.87.66,1.96,1.05,3.14,1.05s2.26-.39,3.14-1.05c.38-.28.71-.62,1-.99.39-.51.69-1.08.87-1.71.02-.06.08-.09.13-.07l2.85.84,1,.29.5.15,1.78.52,2.43.71c.16.05.26.21.23.38l-.8,4.64c-.03.2-.23.32-.42.26l-8.05-2.36c-.77-.23-1.54.35-1.54,1.15v6.37c0,.18-.15.33-.33.33h-5.61c-.18,0-.33-.15-.33-.33v-6.37c0-.8-.77-1.38-1.54-1.15l-8.03,2.35c-.19.06-.39-.07-.42-.26l-.8-4.64c-.03-.17.07-.33.23-.38l8.55-2.5h.02Z"/>
</svg>