<svg id="Layer_1" viewBox="0 0 24 24" xmlns="http://www.w3.org/2000/svg" data-name="Layer 1"><path d="m14 7.5v3c0 .276-.224.5-.5.5s-.5-.224-.5-.5v-2.793l-2.146 2.146c-.306.306-.617.611-.931.918-2.42 2.373-4.923 4.826-4.923 7.729 0 .276-.224.5-.5.5s-.5-.224-.5-.5c0-3.322 2.655-5.925 5.223-8.442.311-.304.62-.608.924-.911l2.146-2.146h-2.793c-.276 0-.5-.224-.5-.5s.224-.5.5-.5h3c.827 0 1.5.673 1.5 1.5zm-.146 6.646c-.195-.195-.512-.195-.707 0l-1.646 1.646-1.646-1.646c-.195-.195-.512-.195-.707 0s-.195.512 0 .707l1.646 1.646-1.646 1.646c-.195.195-.195.512 0 .707s.512.195.707 0l1.646-1.646 1.646 1.646c.195.195.512.195.707 0s.195-.512 0-.707l-1.646-1.646 1.646-1.646c.195-.195.195-.512 0-.707zm-8.854-3.146c-1.103 0-2-.897-2-2s.897-2 2-2 2 .897 2 2-.897 2-2 2zm0-1c.552 0 1-.449 1-1s-.448-1-1-1-1 .449-1 1 .448 1 1 1zm12-4.5v14c0 2.481-2.019 4.5-4.5 4.5h-8c-2.481 0-4.5-2.019-4.5-4.5v-14c0-1.391.822-2.585 2-3.149v-1.851c0-.276.224-.5.5-.5s.5.224.5.5v1.551c.165-.024.329-.051.5-.051h1.5v-1.5c0-.276.224-.5.5-.5s.5.224.5.5v1.5h2v-1.5c0-.276.224-.5.5-.5s.5.224.5.5v1.5h2v-1.5c0-.276.224-.5.5-.5s.5.224.5.5v1.5h1.5c.171 0 .335.027.5.051v-1.551c0-.276.224-.5.5-.5s.5.224.5.5v1.851c1.178.564 2 1.758 2 3.149zm-1 0c0-1.378-1.121-2.5-2.5-2.5h-10c-1.379 0-2.5 1.122-2.5 2.5v14c0 1.93 1.57 3.5 3.5 3.5h8c1.93 0 3.5-1.57 3.5-3.5zm8-3v17.55c0 1.068-.416 2.072-1.172 2.828l-.975.975c-.094.094-.221.146-.354.146s-.26-.053-.354-.146l-.975-.975c-.756-.756-1.172-1.76-1.172-2.828v-17.55c0-1.378 1.121-2.5 2.5-2.5s2.5 1.122 2.5 2.5zm-1 0c0-.827-.673-1.5-1.5-1.5s-1.5.673-1.5 1.5v17.55c0 .801.312 1.554.879 2.121l.621.621.621-.621c.566-.567.879-1.32.879-2.121z"/></svg>