<?xml version="1.0" encoding="UTF-8"?>
<svg id="Layer_1" xmlns="http://www.w3.org/2000/svg" version="1.1" viewBox="0 0 24 24">
  <!-- Generator: Adobe Illustrator 29.7.1, SVG Export Plug-In . SVG Version: 2.1.1 Build 8)  -->
  <path d="M23.73,23.02l-6.32-6.32c1.61-1.77,2.6-4.12,2.6-6.7C20.01,4.49,15.52,0,10.01,0S0,4.49,0,10.01s4.49,10,10,10c2.58,0,4.92-.99,6.7-2.59l6.32,6.32c.1.1.23.15.35.15s.26-.05.35-.15c.19-.19.19-.51,0-.71h0ZM1.01,10.01C1.01,5.04,5.04,1.01,10.01,1.01s9,4.04,9,9-4.04,9-9,9S1.01,14.97,1.01,10.01Z"/>
</svg>