<?xml version="1.0" encoding="UTF-8"?>
<svg xmlns="http://www.w3.org/2000/svg" id="Layer_1" data-name="Layer 1" viewBox="0 0 24 24">
  <path d="M3,11H12c1.654,0,3-1.346,3-3V3c0-1.654-1.346-3-3-3H3C1.346,0,0,1.346,0,3v5c0,1.654,1.346,3,3,3ZM1,3C1,1.897,1.897,1,3,1H12c1.103,0,2,.897,2,2v5c0,1.103-.897,2-2,2H3c-1.103,0-2-.897-2-2V3ZM21,0h-1c-1.654,0-3,1.346-3,3v5c0,1.654,1.346,3,3,3h1c1.654,0,3-1.346,3-3V3c0-1.654-1.346-3-3-3Zm2,8c0,1.103-.897,2-2,2h-1c-1.103,0-2-.897-2-2V3c0-1.103,.897-2,2-2h1c1.103,0,2,.897,2,2v5ZM4,13h-1c-1.654,0-3,1.346-3,3v5c0,1.654,1.346,3,3,3h1c1.654,0,3-1.346,3-3v-5c0-1.654-1.346-3-3-3Zm2,8c0,1.103-.897,2-2,2h-1c-1.103,0-2-.897-2-2v-5c0-1.103,.897-2,2-2h1c1.103,0,2,.897,2,2v5Zm15-8H12c-1.654,0-3,1.346-3,3v5c0,1.654,1.346,3,3,3h9c1.654,0,3-1.346,3-3v-5c0-1.654-1.346-3-3-3Zm2,8c0,1.103-.897,2-2,2H12c-1.103,0-2-.897-2-2v-5c0-1.103,.897-2,2-2h9c1.103,0,2,.897,2,2v5Z"/>
</svg>
