<?xml version="1.0" encoding="UTF-8"?>
<svg id="Layer_1" data-name="Layer 1" xmlns="http://www.w3.org/2000/svg" viewBox="0 0 2696.83 3365.6">
  <defs>
    <style>
      .cls-1 {
        fill: #191919;
      }
    </style>
  </defs>
  <g>
    <path class="cls-1" d="M1378.03,3365.6c-77.12,0-154.19-11.54-229.06-34.3-72.94-22.17-144.67-55.25-213.2-98.31-67.24-42.25-132.08-94.53-192.72-155.4-60.03-60.25-116.47-129.42-167.75-205.61-51.26-76.15-97.79-159.94-138.31-249.03-40.89-89.92-76.01-186.04-104.39-285.7-59.02-207.29-88.94-427.48-88.94-654.45s29.92-447.15,88.94-654.45c28.37-99.66,63.49-195.78,104.39-285.7,40.52-89.09,87.05-172.88,138.31-249.03,51.28-76.19,107.72-145.37,167.75-205.61,60.64-60.86,125.48-113.15,192.72-155.4,68.53-43.06,140.26-76.14,213.2-98.31C1223.84,11.54,1300.91,0,1378.03,0s154.19,11.54,229.06,34.3c72.94,22.17,144.67,55.25,213.2,98.31,67.24,42.25,132.08,94.53,192.72,155.4,60.03,60.25,116.47,129.42,167.75,205.61,51.26,76.15,97.79,159.94,138.31,249.03,40.89,89.92,76.01,186.04,104.38,285.7,59.02,207.29,88.94,427.48,88.94,654.45s-29.92,447.15-88.94,654.45c-28.37,99.66-63.49,195.78-104.38,285.7-40.52,89.09-87.05,172.88-138.31,249.03-51.28,76.19-107.72,145.37-167.75,205.61-60.64,60.86-125.48,113.15-192.72,155.4-68.53,43.06-140.26,76.14-213.2,98.31-74.88,22.76-151.94,34.3-229.06,34.3ZM1378.03,10c-299.95,0-582.09,173.74-794.44,489.21-212.76,316.08-329.93,736.42-329.93,1183.59s117.17,867.51,329.93,1183.59c212.35,315.47,494.49,489.21,794.44,489.21s582.09-173.74,794.44-489.21c212.76-316.08,329.93-736.42,329.93-1183.59s-117.17-867.51-329.93-1183.59C1960.12,183.74,1677.98,10,1378.03,10Z"/>
    <path class="cls-1" d="M921.69,3225.87c-3.45,0-6.89-.02-10.32-.05-80.94-.86-159.16-11.84-232.5-32.65-75.29-21.36-146.35-53.35-211.21-95.07-64.86-41.72-123.43-93.12-174.09-152.77-49.35-58.11-91.78-124.73-126.12-198.02-33.69-71.91-59.94-150.96-78.02-234.95-17.89-83.14-27.94-171.86-29.85-263.68-1.91-91.78,4.28-187.42,18.4-284.27,14.25-97.75,36.72-197.59,66.77-296.75,62.51-206.27,156.46-407.64,279.24-598.53,122.79-190.89,267.07-359.88,428.85-502.29,77.77-68.46,159.31-130.31,242.35-183.81,82.27-53.01,166.74-98.3,251.05-134.62,84.35-36.33,169.24-63.98,252.32-82.18,83.93-18.38,166.74-27.28,246.15-26.43,80.93.86,159.16,11.84,232.49,32.65,75.29,21.36,146.35,53.35,211.21,95.07s123.43,93.12,174.09,152.77c49.35,58.11,91.78,124.73,126.12,198.02,33.69,71.91,59.94,150.96,78.02,234.95,17.89,83.14,27.93,171.86,29.85,263.68,1.92,91.78-4.28,187.42-18.4,284.27-14.25,97.75-36.72,197.59-66.77,296.75-62.51,206.27-156.46,407.64-279.24,598.53l-4.21-2.71,4.21,2.71c-122.78,190.88-267.07,359.88-428.85,502.29-77.78,68.46-159.31,130.31-242.35,183.81-82.27,53.01-166.74,98.3-251.05,134.62-84.35,36.33-169.24,63.98-252.32,82.17-80.3,17.59-159.58,26.49-235.83,26.49ZM1834.07,149.3c-152.65,0-316.18,36.04-483.88,108.28-349.93,150.73-675.88,440.86-917.79,816.95C190.48,1450.62,61.63,1867.53,69.58,2248.46c7.93,380.2,151.23,678.95,403.49,841.22,131.14,84.35,283.66,126.62,448.93,126.62,152.65,0,316.18-36.04,483.88-108.28,349.93-150.73,675.88-440.86,917.79-816.95,241.91-376.09,370.77-793,362.82-1173.93-7.93-380.2-151.23-678.95-403.5-841.22-131.14-84.35-283.66-126.62-448.92-126.62Z"/>
  </g>
  <g>
    <path class="cls-1" d="M2446.43,277.04l-67.67,24.43c-4.02,1.13-7.17,4.28-8.3,8.3l-22.53,65.78c-3.36,11.91-20.37,11.57-23.24-.47l-22.57-71.65c-1.05-4.4-4.49-7.84-8.89-8.89l-68.38-19.3c-12.04-2.87-12.39-19.88-.47-23.24l65.93-22.87c4.02-1.13,7.17-4.28,8.3-8.3l24.27-67.33c3.36-11.91,20.37-11.57,23.24.47l20.54,70.21c1.05,4.4,4.49,7.84,8.89,8.89l70.41,20.74c12.04,2.87,12.39,19.88.47,23.24Z"/>
    <path class="cls-1" d="M2429.95,122.31l-31.38,11.33c-1.87.53-3.32,1.98-3.85,3.85l-10.45,30.5c-1.56,5.53-9.44,5.37-10.78-.22l-10.47-33.22c-.49-2.04-2.08-3.64-4.12-4.12l-31.71-8.95c-5.58-1.33-5.74-9.22-.22-10.78l30.57-10.61c1.87-.53,3.32-1.98,3.85-3.85l11.26-31.22c1.56-5.53,9.44-5.37,10.78.22l9.52,32.56c.49,2.04,2.08,3.64,4.12,4.12l32.65,9.62c5.58,1.33,5.74,9.22.22,10.78Z"/>
  </g>
  <path class="cls-1" d="M230.81,2880.18l-67.67,24.43c-4.02,1.13-7.17,4.28-8.3,8.3l-22.53,65.78c-3.36,11.91-20.37,11.57-23.24-.47l-22.57-71.65c-1.05-4.4-4.49-7.84-8.89-8.89l-68.38-19.3c-12.04-2.87-12.39-19.88-.47-23.24l65.93-22.87c4.02-1.13,7.17-4.28,8.3-8.3l24.27-67.33c3.36-11.91,20.37-11.57,23.24.47l20.54,70.21c1.05,4.4,4.49,7.84,8.89,8.89l70.41,20.74c12.04,2.87,12.39,19.88.47,23.24Z"/>
  <path class="cls-1" d="M115.72,1259.66l-31.38,11.33c-1.87.53-3.32,1.98-3.85,3.85l-10.45,30.5c-1.56,5.53-9.44,5.37-10.78-.22l-10.47-33.22c-.49-2.04-2.08-3.64-4.12-4.12l-31.71-8.95c-5.58-1.33-5.74-9.22-.22-10.78l30.57-10.61c1.87-.53,3.32-1.98,3.85-3.85l11.26-31.22c1.56-5.53,9.44-5.37,10.78.22l9.52,32.56c.49,2.04,2.08,3.64,4.12,4.12l32.65,9.62c5.58,1.33,5.74,9.22.22,10.78Z"/>
  <path class="cls-1" d="M2449.78,2875.7l-43.47,15.69c-2.58.73-4.6,2.75-5.33,5.33l-14.47,42.25c-2.16,7.65-13.08,7.43-14.93-.3l-14.5-46.02c-.68-2.83-2.88-5.04-5.71-5.71l-43.92-12.4c-7.73-1.85-7.96-12.77-.3-14.93l42.35-14.69c2.58-.73,4.6-2.75,5.33-5.33l15.59-43.25c2.16-7.65,13.08-7.43,14.93.3l13.19,45.1c.68,2.83,2.88,5.04,5.71,5.71l45.23,13.33c7.73,1.85,7.96,12.77.3,14.93Z"/>
</svg>