<?xml version="1.0" encoding="UTF-8"?>
<svg id="Layer_1" xmlns="http://www.w3.org/2000/svg" version="1.1" viewBox="0 0 1070 1070">
  <!-- Generator: Adobe Illustrator 29.7.1, SVG Export Plug-In . SVG Version: 2.1.1 Build 8)  -->
  <defs>
    <style>
      .st0 {
        fill: #191919;
      }
    </style>
  </defs>
  <path class="st0" d="M1070,535c0-142.9-55.65-277.25-156.7-378.3-26.05-26.05-54.33-49.05-84.38-68.89.37-.98.59-2.03.59-3.14,0-4.97-4.03-9.01-9.01-9.01-2.52,0-4.79,1.04-6.43,2.71C730.91,27.32,635.06,0,535,0c-142.9,0-277.25,55.65-378.3,156.7-59.96,59.96-103.93,131.65-129.78,209.89-4.92.06-8.9,4.06-8.9,9,0,3.04,1.52,5.72,3.83,7.35C7.47,431.68,0,482.76,0,535c0,142.9,55.65,277.25,156.7,378.3,4.46,4.46,9.01,8.81,13.61,13.09-.6,1.21-.98,2.56-.98,4,0,4.97,4.03,9.01,9.01,9.01,1.77,0,3.4-.53,4.79-1.41,97.49,85.36,221.09,132,351.87,132,142.9,0,277.25-55.65,378.3-156.7,13.69-13.69,26.52-28.01,38.52-42.87.91.31,1.87.52,2.89.52,4.97,0,9.01-4.03,9.01-9.01,0-1.8-.54-3.47-1.45-4.87,69.88-92.31,107.73-204.27,107.73-322.07h0ZM535,1064.6c-133.23,0-255.11-49.47-348.28-130.98.39-1,.62-2.08.62-3.22,0-4.97-4.03-9.01-9.01-9.01-1.46,0-2.82.38-4.04,1C70.46,825.63,5.4,687.78,5.4,535c0-52.24,7.64-102.72,21.8-150.43,4.89-.1,8.82-4.08,8.82-8.99,0-2.99-1.48-5.63-3.72-7.26C102.31,157.71,301.19,5.4,535,5.4c101.31,0,196.06,28.62,276.62,78.16-.04.36-.11.72-.11,1.1,0,4.97,4.03,9.01,9.01,9.01,1.76,0,3.38-.52,4.77-1.39,144.03,94.75,239.31,257.81,239.31,442.72,0,119.47-39.78,229.82-106.77,318.52-.97-.36-2.01-.58-3.11-.58-4.97,0-9.01,4.03-9.01,9.01,0,1.88.58,3.62,1.56,5.07-97.16,120.41-245.86,197.58-412.27,197.58h0Z"/>
  <path class="st0" d="M954.74,448.04c.57-.32,1.13-.69,1.62-1.18,2.81-2.81,2.81-7.38,0-10.19-1.28-1.28-2.93-1.95-4.6-2.06-18.18-76.09-57.01-145.91-113.73-202.63-80.94-80.94-188.56-125.52-303.02-125.52-68.01,0-133.59,15.73-192.6,45.48-2.83-2.34-7.02-2.22-9.67.43-1.57,1.57-2.23,3.68-2.05,5.74-35.83,19.49-69.06,44.23-98.7,73.87-80.94,80.94-125.52,188.56-125.52,303.02,0,5.11.12,10.2.3,15.28-.83.35-1.61.85-2.28,1.53-2.81,2.81-2.81,7.38,0,10.19.85.85,1.88,1.42,2.96,1.75,6.82,103.64,50.42,200.14,124.55,274.27,80.94,80.94,188.56,125.52,303.02,125.52,15.58,0,31.03-.86,46.31-2.49.3.5.64.98,1.07,1.41,2.81,2.81,7.38,2.81,10.19,0,.87-.87,1.44-1.91,1.77-3.01,91.96-12.66,176.9-54.66,243.68-121.44,80.94-80.94,125.52-188.56,125.52-303.02,0-29.56-3-58.66-8.8-86.96h-.02ZM834.2,834.2c-65.88,65.88-149.65,107.33-240.36,119.87-.33-.64-.73-1.26-1.27-1.8-2.81-2.81-7.38-2.81-10.19,0-.98.98-1.59,2.17-1.89,3.43-15.01,1.59-30.18,2.43-45.49,2.43-113.02,0-219.28-44.01-299.2-123.93-75.33-75.33-116.24-172.23-122.78-271,.59-.32,1.15-.7,1.65-1.2,2.81-2.81,2.81-7.38,0-10.19-.68-.68-1.46-1.19-2.3-1.54-4.06-113.39,37.06-228.11,123.43-314.48,29.57-29.57,62.47-53.81,97.5-72.78,2.83,2.31,6.99,2.18,9.62-.46,1.55-1.55,2.21-3.62,2.06-5.64,59.58-29.89,124.8-44.86,190.02-44.86,108.36,0,216.71,41.25,299.2,123.74,57.3,57.3,94.68,127.09,112.18,200.69-.07.06-.15.11-.22.18-2.81,2.81-2.81,7.38,0,10.19.84.84,1.84,1.4,2.9,1.74,27.95,134.98-10.32,281.07-114.86,385.61h0Z"/>
  <path class="st0" d="M618.32,241.67c-.04-.26-.08-.52-.16-.77-.84-2.7-3.72-4.2-6.41-3.35-1.01.32-1.85.92-2.46,1.68-52.81-13.35-109.81-12.77-165.49,4.68-128.69,40.32-211.82,158.55-213.81,286.57-1.99,1.18-2.99,3.61-2.27,5.91.39,1.25,1.22,2.22,2.26,2.84.39,28.83,4.88,58.08,13.93,86.97,24.36,77.75,77.54,141.37,149.75,179.12,3.34,1.74,6.7,3.4,10.08,5.02.03.36.1.71.21,1.07.84,2.7,3.72,4.2,6.41,3.35.52-.16.98-.42,1.41-.72,39.15,17.36,80.86,26.15,122.88,26.15,30.65,0,61.48-4.68,91.57-14.1,77.75-24.36,141.37-77.54,179.12-149.75,5.21-9.97,9.82-20.14,13.87-30.46.12-.03.23-.04.35-.07,2.7-.84,4.2-3.72,3.35-6.41-.16-.53-.42-.99-.73-1.41,22.49-62.3,24.07-129.9,3.92-194.19-31.84-101.64-112.3-174.85-207.78-202.13h0ZM817.17,635.91c-.23.04-.46.07-.69.14-2.7.84-4.2,3.72-3.35,6.41.2.65.53,1.22.93,1.71-3.95,10.05-8.45,19.96-13.53,29.67-37.09,70.93-99.57,123.17-175.95,147.1-70.1,21.96-144.19,17.65-210.73-11.88-.04-.23-.07-.47-.14-.7-.84-2.7-3.72-4.2-6.41-3.35-.4.13-.77.31-1.12.52-3.36-1.6-6.7-3.25-10.02-4.98-70.93-37.08-123.17-99.57-147.1-175.95-8.9-28.39-13.31-57.13-13.69-85.47,1.87-1.22,2.8-3.56,2.1-5.8-.37-1.18-1.13-2.1-2.09-2.73,1.94-125.76,83.61-241.93,210.03-281.54,29.72-9.31,59.79-13.74,89.41-13.74,25.15,0,49.95,3.21,73.88,9.32,1.09,2.24,3.66,3.42,6.11,2.65.49-.15.92-.39,1.32-.66,94.1,26.64,173.45,98.68,204.81,198.77h0c19.76,63.06,18.24,129.37-3.76,190.5h0Z"/>
  <path class="st0" d="M711.75,443.07c-6.49-12.47-14.16-24.06-22.87-34.69.09-1.49-.82-2.9-2.31-3.37-.21-.07-.42-.11-.63-.13-23.9-27.83-55.11-48.54-90.97-59.86-50.75-16.02-104.69-11.32-151.91,13.24-28.42,14.78-52.34,35.7-70.38,61.07-.91.35-1.67,1.09-1.99,2.09-.1.31-.13.63-.14.94-10.92,15.99-19.55,33.68-25.55,52.67-16.02,50.75-11.32,104.69,13.24,151.91,1.27,2.43,2.59,4.83,3.94,7.19-.2,1.49.64,2.95,2.06,3.52,25.03,41.76,63.94,72.56,110.77,87.34,19.78,6.24,40.04,9.34,60.2,9.34,31.57,0,62.89-7.59,91.7-22.58,6.82-3.55,13.36-7.45,19.64-11.68,1.24-.05,2.37-.8,2.89-1.98,35.76-24.99,62.17-60.82,75.52-103.11h0c16.02-50.74,11.32-104.7-13.24-151.91h.03ZM719.83,593.35c-12.95,41.02-38.54,75.8-73.17,100.1-1.5-.11-2.93.81-3.4,2.31v.03c-6.02,4.04-12.29,7.77-18.82,11.17-45.93,23.89-98.42,28.46-147.79,12.88-45.62-14.4-83.52-44.42-107.86-85.13.05-1.28-.65-2.5-1.81-3.09-1.35-2.36-2.67-4.75-3.94-7.17-23.89-45.93-28.46-98.42-12.88-147.79,5.81-18.42,14.17-35.57,24.75-51.09.97-.33,1.79-1.09,2.12-2.14.11-.36.15-.73.14-1.08,17.54-24.63,40.78-44.93,68.38-59.28,28.03-14.58,58.5-21.96,89.21-21.96,19.61,0,39.33,3.01,58.57,9.09,35.14,11.09,65.7,31.46,89.01,58.83.24.95.9,1.76,1.83,2.19,8.68,10.5,16.32,22,22.76,34.37,23.89,45.93,28.46,98.42,12.88,147.79l.02-.03Z"/>
</svg>