<?xml version="1.0" encoding="UTF-8"?>
<svg id="BG" xmlns="http://www.w3.org/2000/svg" viewBox="0 0 1551.96 1512.01">
  <defs>
    <style>
      .cls-1 {
        fill: #8a4dff;
      }

      .cls-2 {
        fill: #ff794a;
      }
    </style>
  </defs>
  <path class="cls-2" d="M1176.9,1442.12c-49.83,27.51-101.48,48.53-153.97,63.35-88.07,24.86-180.26-23.14-209.75-109.77l-101.23-297.3c-31.27-91.84,40.55-186.07,137.4-180.27l52.33,3.14c111.64,6.69,199.79-93.44,178.99-203.34l-55.26-292.08c-30.45-160.91,160.27-269.13,282.71-160.37,60.73,53.94,113.35,119.09,154.54,194.46,191.87,351.11,64.54,788.84-285.76,982.18Z"/>
  <path class="cls-1" d="M665.29,1176c48.07,141.19-94.46,272.63-231.09,212.82-140.89-61.67-263.31-168.47-343.33-313.36C-103.69,723.17,24.41,282.18,377.48,89.04,484.57,30.45,599.93,1.71,714.02.02c83.64-1.23,156.14,57.6,171.69,139.79l110.65,584.79c12.22,64.6-39.59,123.46-105.22,119.53l-90.67-5.44c-121.82-7.3-212.16,111.24-172.82,226.76l37.64,110.55Z"/>
</svg>