<?xml version="1.0" encoding="UTF-8"?>
<svg id="BG" xmlns="http://www.w3.org/2000/svg" viewBox="0 0 1556.28 588.61">
  <defs>
    <style>
      .cls-1 {
        fill: #8a4dff;
      }

      .cls-2 {
        fill: #191919;
        font-family: SUSE-ExtraBold, SUSE;
        font-size: 250.58px;
        font-weight: 700;
      }

      .cls-3 {
        fill: #ff794a;
      }
    </style>
  </defs>
  <g>
    <path class="cls-3" d="M444.96,545.24c-18.84,10.4-38.37,18.35-58.21,23.95-33.3,9.4-68.15-8.75-79.3-41.5l-38.27-112.4c-11.82-34.72,15.33-70.35,51.95-68.16l19.78,1.19c42.21,2.53,75.54-35.33,67.67-76.88l-20.89-110.43c-11.51-60.84,60.59-101.75,106.89-60.63,22.96,20.39,42.86,45.03,58.43,73.52,72.54,132.75,24.4,298.24-108.04,371.34Z"/>
    <path class="cls-1" d="M251.53,444.62c18.17,53.38-35.71,103.08-87.37,80.46-53.27-23.32-99.55-63.7-129.81-118.47C-39.2,273.42,9.23,106.69,142.72,33.66,183.2,11.51,226.82.65,269.96,0c31.62-.47,59.03,21.78,64.91,52.85l41.83,221.1c4.62,24.42-14.97,46.68-39.78,45.19l-34.28-2.06c-46.06-2.76-80.21,42.06-65.34,85.73l14.23,41.8Z"/>
  </g>
  <text class="cls-2" transform="translate(708.31 262.25)"><tspan x="0" y="0">Hue</tspan><tspan x="0" y="223.62">Sixteen</tspan></text>
</svg>