<?xml version="1.0" encoding="UTF-8"?>
<svg id="Layer_1" data-name="Layer 1" xmlns="http://www.w3.org/2000/svg" viewBox="0 0 1741.13 1575.66">
  <defs>
    <style>
      .cls-1 {
        fill: #191919;
      }
    </style>
  </defs>
  <path class="cls-1" d="M129.92,1310.67l-1.19-2.75,1167.72-504.02c36.45-15.9,64.17-46.79,76.03-84.75,11.87-37.96,6.67-79.14-14.24-112.97L1041.43,93.87l2.55-1.58,316.8,512.3c21.38,34.57,26.68,76.65,14.56,115.45-12.12,38.79-40.44,70.36-77.7,86.61L129.92,1310.67Z"/>
  <path class="cls-1" d="M98.19,1375.82l-1.19-2.75,1271.32-549.65c36.45-15.89,64.17-46.78,76.03-84.74,11.87-37.97,6.67-79.15-14.25-112.98L1044.09,1.58l2.55-1.58,386.01,624.12c21.38,34.57,26.69,76.65,14.56,115.45-12.12,38.79-40.44,70.36-77.7,86.6L98.19,1375.82Z"/>
  <path class="cls-1" d="M76.2,1436.69l-1.19-2.75,1365.2-591c36.45-15.89,64.17-46.78,76.03-84.74,11.87-37.97,6.67-79.15-14.25-112.98L1115.98,21.1l2.55-1.58,386.01,624.12c21.38,34.57,26.69,76.65,14.56,115.45-12.12,38.79-40.44,70.36-77.7,86.6L76.2,1436.69Z"/>
  <path class="cls-1" d="M49.2,1498.82l-1.19-2.75,1464.08-633.6c36.45-15.89,64.17-46.78,76.03-84.74,11.87-37.97,6.67-79.15-14.25-112.98L1187.86,40.63l2.55-1.58,386.01,624.12c21.38,34.57,26.69,76.65,14.56,115.45-12.12,38.79-40.44,70.36-77.7,86.6L49.2,1498.82Z"/>
  <path class="cls-1" d="M1.2,1575.43l-1.2-2.75,1583.97-690.69c36.46-15.89,64.17-46.78,76.03-84.75,11.87-37.97,6.67-79.15-14.25-112.98L1259.74,60.15l2.55-1.58,386.01,624.12c21.38,34.57,26.69,76.65,14.56,115.45-12.12,38.79-40.44,70.36-77.7,86.6L1.2,1575.43Z"/>
  <path class="cls-1" d="M117.92,1575.66l-1.2-2.75,1539.13-671.4c36.46-15.89,64.17-46.78,76.03-84.74,11.87-37.97,6.67-79.15-14.25-112.98L1331.63,79.67l2.55-1.58,386.01,624.12c21.38,34.57,26.69,76.65,14.56,115.45-12.12,38.79-40.44,70.36-77.7,86.6L117.92,1575.66Z"/>
</svg>