<?xml version="1.0" encoding="UTF-8"?>
<svg id="Layer_1" xmlns="http://www.w3.org/2000/svg" version="1.1" viewBox="0 0 403 500">
  <!-- Generator: Adobe Illustrator 29.7.1, SVG Export Plug-In . SVG Version: 2.1.1 Build 8)  -->
  <defs>
    <style>
      .st0 {
        fill: #f47fa6;
      }

      .st1 {
        fill: #ff99c3;
      }
    </style>
  </defs>
  <path class="st0" d="M403,201.5v206.86c0,50.61-41.03,91.64-91.64,91.64H91.64c-50.61,0-91.64-41.03-91.64-91.64v-206.86C0,90.29,90.29,0,201.5,0s201.5,90.29,201.5,201.5Z"/>
  <path class="st1" d="M403,341.64v66.72c0,50.61-41.03,91.64-91.64,91.64H91.64c-50.61,0-91.64-41.03-91.64-91.64v-66.72c0-27.21,11.86-51.64,30.69-68.42,104.4-3.18,208.92-1.91,313.36-1.05,9.1.07,18.21.14,27.32.21,19.37,16.8,31.63,41.6,31.63,69.26Z"/>
</svg>