<?xml version="1.0" encoding="UTF-8"?>
<svg id="Layer_1" data-name="Layer 1" xmlns="http://www.w3.org/2000/svg" viewBox="0 0 838.77 838.77">
  <defs>
    <style>
      .cls-1 {
        fill: #191919;
      }
    </style>
  </defs>
  <path class="cls-1" d="M827.52,168.33l-92.69,201.57c-14.44,31.41-14.44,67.55,0,98.96l92.69,201.57c45.93,99.89-57.19,203.01-157.08,157.08l-201.57-92.69c-31.41-14.44-67.55-14.44-98.96,0l-201.57,92.69c-99.89,45.93-203.01-57.19-157.08-157.08l92.69-201.57c14.44-31.41,14.44-67.55,0-98.96L11.25,168.33C-34.68,68.44,68.44-34.68,168.33,11.25l201.57,92.69c31.41,14.44,67.55,14.44,98.96,0L670.43,11.25c99.89-45.93,203.01,57.19,157.08,157.08Z"/>
</svg>