<?xml version="1.0" encoding="UTF-8"?>
<svg id="Layer_1" xmlns="http://www.w3.org/2000/svg" version="1.1" viewBox="0 0 1741.13 1111.97">
  <!-- Generator: Adobe Illustrator 29.7.1, SVG Export Plug-In . SVG Version: 2.1.1 Build 8)  -->
  <defs>
    <style>
      .st0 {
        fill: none;
        stroke: #fff;
        stroke-miterlimit: 10;
        stroke-width: 5px;
      }
    </style>
  </defs>
  <g>
    <path class="st0" d="M955.89,2.29l215.63,346.29c67.96,109.14,22.42,252.94-96.12,303.5L2.43,1109.68"/>
    <path class="st0" d="M1046.53,2.29l230.06,368.71c67.77,108.61,23.07,251.83-94.59,303.04l-1000.86,435.65"/>
    <path class="st0" d="M1136.12,2.29l249.95,398.16c68.29,108.78,23.45,252.57-94.69,303.7l-937.06,405.54"/>
    <path class="st0" d="M1223.5,2.29l273.73,423.23c70.43,108.89,25.96,254.69-93.38,306.18l-876,377.98"/>
    <path class="st0" d="M1309.06,2.29l294.66,455.59c70.41,108.86,25.98,254.63-93.31,306.16l-800.32,345.65"/>
  </g>
  <path class="st0" d="M1400.26,0l303.85,483.46c68.2,108.51,24.54,252.27-92.48,304.53l-725.49,323.98"/>
</svg>