<?xml version="1.0" encoding="UTF-8"?>
<svg id="Layer_1" xmlns="http://www.w3.org/2000/svg" version="1.1" viewBox="0 0 200 200">
  <!-- Generator: Adobe Illustrator 29.7.1, SVG Export Plug-In . SVG Version: 2.1.1 Build 8)  -->
  <defs>
    <style>
      .st0 {
        fill: #013ded;
      }

      .st1 {
        fill: #ffb000;
      }
    </style>
  </defs>
  <g>
    <circle class="st1" cx="100" cy="100" r="87.62"/>
    <path class="st0" d="M102.81,10.02l9.18.85c39.94,5.13,72.09,37.24,77.32,77.15l.69,7.35v9.28l-.69,7.35c-5.19,39.88-37.15,71.83-76.99,77.15l-9.01.85h-6.3l-9.01-.85c-42.73-5.87-74.72-40.81-77.67-83.76-.06-.92.27-2.18-.33-2.9v-4.81c.6-.72.27-1.98.33-2.9C13.34,48.43,50.55,11.68,97.11,10.17l.4-.17h5.3v.02ZM101.32,29.74c-.55-2.03-.94-4.59-1.67-6.53-.24-.65-.6-.83-.95-.13l-1.86,6.6-7.47-.09.17.75,5.79,3.84-2.4,6.84c-.05.16.15.39.26.43.45.19,5.06-4.01,5.89-4.41l.4.09,5.05,4.07.76.15-2.3-7.18,5.91-3.96.02-.62-7.6.15h0ZM135.63,37.03c-.53-1.98-.92-4.35-1.62-6.25-.12-.34-.18-.8-.62-.87-.35-.05-.38.46-.46.7-.69,2.08-1.05,4.28-1.77,6.35l-7.4-.1-.04.65,5.92,3.95c.15.5-2.1,5.51-2.35,6.56-.05.22-.22.35.05.55h.67l5.39-4.36c.33-.03,4.42,3.6,5.17,4.08.35.22.58.45,1.05.36l-2.3-7.18c.13-.4,4.81-3.07,5.53-3.76.26-.25.5-.39.42-.82l-7.62.16-.02-.02ZM69.69,43.03l5.67-3.7c.54-.42.31-.74-.3-.82-1.25-.15-6.31.49-6.89.1l-1.86-6.59c-.25-.59-.64-.6-.91,0l-1.86,6.77-7.47-.26.17.74,5.94,3.98-2.47,6.64c-.04.18.1.54.26.57.44.09,4.98-4.18,5.94-4.44l5.82,4.44c.34-.24.27-.52.22-.87-.22-1.5-1.71-4.14-2.17-5.79-.06-.22-.2-.57-.09-.77ZM85.07,95.05c-.16.04-.24.14-.33.25l.33.9c-1.11.15-1.62,1.32-2.49,1.91l1.49.58-.33.33c.55-.11,1.1-.35.97.48-.83.46-3.82,2.89-3.75,3.75.43.56,1.08.87,1.78.74.32.29-2.57,3.74-1.83,5.03.17.3.67.05.84-.13.23-.24.19-.7.49-.75l-.66,5.14c.8-.43,1.04-1.31,1.16-2.15l.5.99c.21.19.75-.64.8-.78.24-.78-.63-2.86-.3-3.86l.49.66c-.07-.4.4-.26.76-.47,1.21-.71.07-1.53.74-2.51l.49.5c-.06-.33.43-.73.44-.91.03-.39-.87-.85.07-1.32.2-.1.6-.06.64-.1.11-.12.17-1.56.26-1.81.19-.58.54.67.67.67.85-.4,1.18-.93.58-1.74.16-.35.68-.18.83-.26,0,0-.11-.21-.05-.32.09-.17.29-.26.35-.46.23-.83.08-1.98.21-2.86l.83,1.99-.16-.83.5.17.17-1.33c.41-.21.31.36.41.33.81-.21,1.21-1.81,1.08-2.54-.02-.14-.5-.07-.16-.61.59.24.25,1.35.99,1.32l-.16-.82h.47l.19-1.83c.45.26.46-.23.74-.5.15,0,.57.88.92.58.71-.81.52-1.41.49-2.41.59-.09.34.71.66,1.08.46.53.76-.33,1.32-.26l-.15-1.98.83.17v-.83c.21-.05.43.08.49.27s-.98,3.34-1.15,3.79c-.18.49.43-.16.32.32-.13.55-.61,1.52-.64,2.01,0,.08.31,0,.34.31.05.61-.35,1.4-.18,2.08l.99-1.33v2.49l.66-.17c-.15.44.31.45.34.74.19,1.42-.65,3.06-.34,4.57.29.05.12-.31.26-.49.12-.15.32-.14.45-.38.27-.47.21-1.31.43-1.67.14-.23.72-.22.92-.61.1-.2.24-.97.22-1.2-.06-.53-.62-.84-.63-.9-.07-.34.13-1.17.41-1.4.24-.2.55.11.75-.22-.27-.5-.74-.99-.49-1.58l1.15.16c-.04-.89-.18-1.67-.83-2.31l.83.09c.94-.86.12-1.53-.13-2.37-.13-.46.09-1.06-.37-1.46-.03-.08.65-.37.74-.08l2.24,13.43.33-.17c.44,3.29.73,6.55,1,9.86.36,4.43.23,8.96,0,13.43-.13,2.65-1.4,10.52-2.46,12.78-.53,1.14-1.48,2.28-1.98,3.49-1.01,2.43-1.29,5.09-1.53,7.67l.49-.33c-.07.59.3.05.67.23.23.12.27.55.44.6.76.2.41-.36.83-.64.64-.43,1.82-.34,2.54-.7-.29-.66,0-1.23,0-1.75-.04-4.94,2.6-9.94,2.95-14.95s.35-11.34.38-16.52c.02-3.39-.48-6.88-.97-10.14-.35-2.35-.49-4.75-1.06-7.06-.6-2.43-1.86-5.3-2.25-7.72-.07-.43.14-1.39.05-1.89-.07-.38-.5-.35-.56-.57s.2-.71.15-1.13c-.09-.78-1.28-1.2-.66-2.25.14-.11.71.48.81.6,1.07,1.3,1.75,2.79,2.6,4.18.52.85.98,1.9,1.89,2.34l.17-1.16.67.44,1.99,5.36,1.16-.99c.08.08.29,1.85.49,2.21.13.23.73-.13.51.77l.17-.99.49.17.08-.83c.39.37.49.96.77,1.38.16.24.48.32.62.54.39.61-.08,2.06.6,2.38.33.16.26-.34.3-.53.09-.44.06-1.26.44-1.46l1,2.82.66-1.82.83,2.98c.68-.22.62-1.58,1.4-1.5l.67.5,1.24,1.66c.03-1.18-.19-2.82-.63-3.93-.35-.89-1.27-1.43.63-.71.17-.69-.36-1.07-.57-1.5-.14-.29-.05-.64-.25-.91-.17-.24-.63-.3-.84-.49-.29-.26-.4-.6-.66-.83-.61-.54-1.65-.67-1.17-1.73l-.99-.59c.47-.32,1.11.39,1.49-.16-.35-.43-.86-.67-1.25-1.07-.21-.21-.22-.55-.41-.75-.31-.32-1.07-.39-1.48-.68-.77-.55-1.23-2.06-2.28-2.19-.37-.05-.8.23-1.21.13.3-.58-.21-.65-.37-1.04-.35-.86.08-1.09-1.12-1.53-.31-.11-.82-.08-1.06-.23-.21-.14-.15-.65-.27-.88-.57-1.08-2.16-1.01-3.22-.95-.11-.88-1.48-.62-2.08-1.25,1.37-1.48,1.68,1.39,3.15,1.01.6-.16.5-.74.75-1.08.19-.26.61-.3.78-.72.16-.38-.16-.49-.19-.72-.08-.74.94.07,1.31.19.39.13,1.32.46,1.57.09l.24-.76.84.1.09-1.16c-.22-.45-1.14-.17-1.09-.83l4.14,1.49c.12-.8.48-1.07-.15-1.76l.23-.38c.58.2,1.85.76,2.41.55.14-.05.26-.32.43-.35.25-.05.73.23,1.06.13v-.5c-.62.03-1.34-.27-1.66-.83,1.16-.43,2.16.81,3.15-.33l.08.5.91-.83-.99-.33c1.01-.48,1.87.13,2.65-.76.25-.29.15-.92,1-.98l-1.32-.27v-.48c-1.28.26-2.97.59-2.66-1.33l-.66.66c.17-.26-.92-1.37-.99-1.32.03.44-.58.41-.95.63-.34.2-.81.95-1.17.49-.24-.31.06-.98-.7-.79l.42.33.08,1-.76-.83c-.24-.06-1.02.85-1.65.84-.34,0-.15-.52-.57-.18l-.08-.5-2.24,1.49.33-.74-.33-.25c.07.48-.42.27-.68.41-.16.08.02.37-.02.39-.29.24-1.41.63-1.72.85-.41.28-.66.92-1.23,1.02l.16.48h-.99c.33-.39.46-.76.06-1.17l-3.04.68c.14-.97,1.62-.82,2.32-.66v-.67c.22.1,1.37-.01,1.5-.09.18-.11.3-.54.57-.75.18-.13.54-.14.57-.17.12-.14-.18-.83-.12-1.19.1-.64,1.14-1.47.97-2.45-.12-.12-2.99.91-2.98.25.23-.21.73-.76.99-.83.28-.08.44.27.67.17.18-.08.57-.64.83-.83.41-.3,1.01-.42,1.43-.97.29-.38.74-1.39.88-1.86.06-.19-.79.3-.83-.25l1.25-.32c.19-.27.04-1.71.28-2.13.07-.12,1.05-.63,1.08-.95.02-.29-.7-.97.04-1.57l-3.15.83c.09-.57.76-.71.94-.88.56-.55,1.46-1.38,1.55-2.1l.66.17c0-.44-.17-.76.03-1.2.23-.5.69-.58.96-.96l-2.15.91c.35-.89,2.7-1.92,2.9-2.72.03-.13-.05-.53-.18-.52l-1.4.67,1.16-1.41c.03-.12-.17-.11-.25-.08-.27.12-1.96,1.77-2.24,1.49.43-.94,1.04-1.93.83-2.98-1.11.89-1.73,2.19-2.57,3.31l-.4-1.09-.82-.05c-.28.17-.17,2.96-.6,2.96l-1.14-.67-.13.29-.3-.12-.33,4.15c-.1.11-1.43-.53-1.63.11l-.36,5.2-.75-1.32-.24-1.5c.29.69-.3.98-.34,1.24-.2,1.16-.72,3.51-.78,4.52-.03.53.39.98.29,1.53l-.65-.26.15-1.06-.46-.03-.03-.48c-.61.27-.21,1.17-.33,1.71-.11.48-.8,1.89-.96,2.55-.2.84.21,1.81.12,2.44-.06.41-.4.68-.33,1.16.06.38.49.46.52,1,.04.6-.41,1.28-.35,1.91-.45-.31-1.12-1.48-1.25-1.98-.3-1.18.51-3.31-1.32-3.3l-.08.31h-.33l-.16-.49c0,.16-.33,1.67-.66,1.33-.2-.63-.11-1.27-.17-1.9-.03-.28-.28-.52-.3-.7,0-.2.25-.35.26-.6.03-.53-.46-1.06-.37-1.61-.43-.5-.4.25-.83.33-.23-.67-.67-.38-1.24-.5l.17-.83-1.33-.17.33-.83-.73.32-.43-.81-.25.33-.44-.49-.64.15c-.25-.32-.19-1.23-.21-1.3,0-.02-.22-.02-.27-.16-.13-.36-.18-.83-.35-1.2l-.57.33-.59-.99-.17.66-.33-.33-.17,2.15c-.77-.21-.12-.97-.4-1.34l-1.51-.81-.16.49-1.25-1.82-.67.44.18,1.05c-.65.19-.79-.44-1.32-.5l.33,1.32-.66-.99.49,1.66s-.73-.62-.99-.25l.66,1.08c-.1.09-2.51-.4-2.69-.5-.28-.15-.29-.77-.49-.95-.22-.2-.58-.12-.83-.22-.14-.06-.13-.33-.22-.33-.36,0-1.5.88-2.23.51l1.33.91c.87.52,1.97.19,2.7.28.38.05,1.46.65.62.88s-1.9,0-2.66.58c.03.34.49.24.62.37.1.11.04.42.2.54.22.16.86.08,1.23.28.21.12.22.39.4.46.53.2,2.55.29,3.28.34.65.04,1.18-.26,1.9.16-.06.3-.33.31-.57.34-1.04.12-2.28-.07-3.04.9.23.71,1.17.71,1.87.75.81.05,1.61-.14,2.41,0l-.99.91c0,.06.88.7.95.72.5.13.72-.33.93-.29.16.03.31.38.56.46.31.1,1.29-.11,1.7.03l-1.66.66c-.02.26-.05.39.17.58.66.54,3.65.33,4.55.25.53-.04,1.2-.52,1.57-.08.08.4-.32.23-.58.25-.65.03-2.98.06-3.23.58-.16.34.71.39.94.48.07.03.3.52.89.27l-.79.36-.17.56.89.4c.13-.27,0-.39.4-.32l.17.99h-.58l.09.5c-1.37.34-1.96.15-3.25-.15-.69-.16-.52,0-1.2-.33-1.08-.53-.94-.23-1.89-.39-.55-.09-1.16-.47-1.7-.64l-.18.35-.8-.17-.27.4,2.32,1.82-.74.41c.14-1.32-.48-.61-1.32-.65s-2.18-.75-3.11-.33c-.13.06-.14.32-.2.31-.55-.06-1.71-1.2-2.41-.33.81.3,2.01.84,2.64,1.42.26.24.13.2-.08.41-1.51-.58-3.19-.4-4.78-.38-.11,0-.26-.23-.39-.25-.1-.02-1.55.37-1.38.79l3.48,1.08c-.46.66-1.12.27-1.58.33-.3.04-1.41.38-1.65.35-.34-.03-.76-.45-1.41-.09.48.46,1.18.58,1.8.94.2.12.46-.1.36.38-.96-.54-2.05-.02-3.03.37s-1.94.87-2.61,1.7l.27.39,1.38-.06c-.44.39-.97.67-1.41,1.07-.18.17-1.44,1.34-1.24,1.5.76-.22.55.58,1.16.17.17.56-.61.26-.66.66.64.1.87-.63,1.49-.33l-.83.83.99-.16c-.52,1.33-.24,1.26.74.49.32-.25,1.37-1.03,1.54-1.2.2-.2.22-.71.42-.91.27-.27.99-.18.95-.7.31-.23.48.37.47.58-.03.64-.64,1.35-.47,2.07.58-.21.81-1.05,1.23-1.33.36-.24.85-.19,1.24-.42.44-.25.72-1.09,1.4-.58.19.14.07.48.1.51.45.45,1.77-1.4,2.07-1.66.22-.19.52-.25.74-.42.3-.23,1.07-1.3.99-.34-.04.52-.36,1.06.1,1.59.36-.2.56-.73.8-.94.14-.13.45-.12.7-.37,1.04-1.05,1.72-2.57,3.22-3.16l-1.49,3.65c.6,0,3.6-2.36,3.81-2.15-.35.84-.75.99,0,1.82l-.83-.5-.17.66c.59-.3.89.09.66.66h.66l-.83.67.66.83-.49-.08.16-.42c-1.03-.16-1.79.23-2.62.78-.23.15-.39.54-.48.55-.35.04-.95-.47-1.05.49l1.33.17c.1.87-.51.99-.87,1.62-.96.19-3.55.73-3.11,2.03.27-.16.37-.32.74-.34.4-.02.2.1.25.34.09-.02.22,0,.33,0l-.25.5c-.18-.04-.05-.35-.08-.5l-.02.04ZM168.28,62.06l-7.3.25c-.47-.28-1.57-5.81-1.98-6.8-.09-.21-.09-.45-.41-.42l-.49.5-1.76,6.61c-.46.4-6.69-.56-7.45-.07-.42.26.22.75.42.92.67.54,5.46,3.35,5.5,3.72l-2.43,7.04c.3.09.41.16.71,0,1.45-.8,3.27-2.86,4.77-3.86.2-.13.51-.43.73-.43.85.38,5.43,4.61,5.88,4.4.19-.09.37-.39.27-.59l-2.43-6.69,5.74-3.75.24-.83h-.01ZM43.64,63.22c-.16-.89-1.66-7.02-2.08-7.12l-.59.57-1.8,6.48-7.47-.09.17.74,5.81,3.84-2.47,6.8c.26.83.62.49,1.12.12.68-.51,4.74-4.03,5.07-4.04l5.71,4.4c.52.2.6-.43.47-.8l-2.43-6.34,5.84-3.91c.54-.42.31-.74-.3-.82-1.02-.12-6.79.41-7.05.17ZM74.63,83.78c.08-.06-.29-.44-.5-.33-.08.06.29.44.5.33ZM34.87,96.85c-.3-.19-1.49-5.92-1.89-6.81s-.71-.33-.96.28c-.35.88-1.54,6.28-1.81,6.48-1.3-.14-2.61-.04-3.91-.09-.52-.02-4.66-.7-3.29.63l5.84,3.91-2.47,6.64c-.04.19.1.54.27.58.43.09,5-4.04,5.83-4.45l5.91,4.43.36-.31-2.42-7.02,5.71-3.78c1.36-1.32-2.64-.66-3.13-.64-1.35.05-2.69-.06-4.04.15ZM168.07,89.78c-.13-.07-.32-.21-.46-.13-.54.26-1.77,6.24-2.16,7.21l-7.45-.32.24.83,5.7,3.92c-.11.98-2.6,6.42-2.39,6.84.05.1.26.3.36.32l5.81-4.44,5.8,4.43.38-.25-2.43-6.95,5.82-3.91c1.38-1.34-2.77-.65-3.29-.63-1.3.05-2.61-.05-3.91.09l-2.02-7.02h0ZM70.65,90.57h-.33v.16h.33v-.16ZM41.8,123.24h-.54l-2.11,7.09c-1.45-.15-2.91-.09-4.37-.14-.51-.02-4.06-.68-2.82.67l5.7,3.92-2.39,6.67c-.05.2.21.45.37.48.51.1,5.46-4.51,5.92-4.43l5.66,4.46.4-.28-2.43-6.94,5.85-3.88c.46-.39.27-.85-.33-.84l-6.9.27-1.99-7.04h-.02ZM160.84,131.33c-.26-.22-1.41-5.66-1.79-6.58-.21-.51-.39-.92-.88-.41l-1.98,6.93-6.89-.26c-.58-.02-.83.48-.3.82l5.85,3.93-2.47,6.63c-.05.2.07.51.25.56.52.16,5.02-4.09,5.93-4.45l5.7,4.42c.2.08.35.04.47-.13.3-.43-2.29-6.05-2.39-7.02.79-1.09,5.44-3.23,5.86-4.1.1-.21.1-.43.09-.66l-7.44.31h0ZM66.16,147.78l-.66.08-1.96,6.95-6.9-.27c-.6,0-.79.45-.33.84l5.7,3.92-2.39,6.67c-.05.2.21.45.37.48.46.09,4.97-4.01,5.81-4.42l5.8,4.43c.17.06.33-.11.37-.25.27-.89-2.22-5.63-2.28-6.91l5.7-3.92c.92-1-.85-.86-1.5-.84-1.63.05-3.33.3-4.96.35-.26,0-.52.03-.76-.08l-2-7.03h0ZM135.63,156.53c-.54-1.97-.91-4.36-1.62-6.25-.13-.34-.18-.8-.62-.87-.35-.05-.38.46-.46.7-.7,2.1-1.05,4.32-1.8,6.4l-7.36-.15-.04.65,5.92,3.95c.13.44-2.09,5.56-2.36,6.56-.17.64.12.76.71.54l5.39-4.35c.33-.03,4.42,3.6,5.17,4.08.35.22.58.45,1.05.36l-2.3-7.17c.04-.18.2-.25.32-.36,1.23-1.19,3.85-2.25,5.21-3.41.27-.23.48-.42.41-.83l-7.62.16h0ZM99.47,158.72l-.66.08-1.96,6.95c-.19.14-.82.09-1.09.08-1.68-.09-3.82-.39-5.46-.35-.67.02-1.32.13-.67.84l5.7,3.92-2.35,6.55c-.11.61.12.8.71.54l5.42-4.38,5.78,4.47c.19.03.34-.12.39-.28.27-.85-2.26-5.64-2.28-6.9l5.7-3.92c.57-.62.17-.79-.49-.84-1.48-.12-3.9.26-5.47.35-.29.02-1.07.06-1.26-.08l-2-7.03h0Z"/>
  </g>
  <path d="M-3121.06-721.36c2.18,11.45-3.12,6.42-8.74,9.04-5.43,2.53-31.77,14-35.21,10.91,2.09-19.91,28.75-20.63,43.95-19.95h0Z"/>
  <polygon points="-3257.21 -633.22 -3249.03 -609.42 -3276.92 -623.4 -3257.21 -633.22"/>
  <polygon points="-3612.98 -1033.32 -3608.94 -1017.34 -3620.89 -1021.3 -3622.87 -1009.34 -3632.93 -1029.26 -3612.98 -1033.32"/>
  <path d="M-3201.06,958.23c-12-1.54-9.3-28.13-1.96-27.91,9.99.3,2.21,22.33,1.96,27.91Z"/>
  <path d="M-2949.1-1217.22l-31.97,15.92c5.3-11.93,20.01-15.57,31.97-15.92Z"/>
  <path d="M-3265.01-513.39c-4.89,7.84-6.42,19.64-15.95,23.95-.44-9.44,3.66-24.88,15.95-23.95Z"/>
  <path d="M-3956.87-441.42c2.02,12.79-6.85,22.33-15.9,9.98l9.98-9.96,5.92-.02h0Z"/>
  <polygon points="-3633.31 -992.94 -3634.9 -981.34 -3648.92 -997.27 -3633.31 -992.94"/>
  <polygon points="-3249.01 -533.38 -3253.46 -521.93 -3265.01 -521.46 -3260.56 -532.91 -3249.01 -533.38"/>
  <path d="M-2997.12-405.48h-3.9l-4.03-15.95c12.93.02,11.72,5.64,7.93,15.95Z"/>
  <path d="M-3149.03-581.45c-7.46,1.07-13.86.03-15.99-7.92,7.46-1.07,13.86-.03,15.99,7.92Z"/>
  <polygon points="-2937.08 -1113.25 -2949.04 -1101.29 -2949.06 -1113.27 -2937.08 -1113.25"/>
</svg>