<?xml version="1.0" encoding="UTF-8"?>
<svg id="Layer_1" xmlns="http://www.w3.org/2000/svg" version="1.1" viewBox="0 0 473.38 300">
  <!-- Generator: Adobe Illustrator 29.7.1, SVG Export Plug-In . SVG Version: 2.1.1 Build 8)  -->
  <path d="M-2984.37-671.36c2.18,11.45-3.12,6.42-8.74,9.04-5.43,2.53-31.77,14-35.21,10.91,2.09-19.91,28.75-20.63,43.95-19.95h0Z"/>
  <polygon points="-3120.52 -583.22 -3112.34 -559.42 -3140.23 -573.4 -3120.52 -583.22"/>
  <polygon points="-3476.29 -983.32 -3472.25 -967.34 -3484.2 -971.3 -3486.18 -959.34 -3496.24 -979.26 -3476.29 -983.32"/>
  <path d="M-3064.37,1008.23c-12-1.54-9.3-28.13-1.96-27.91,9.99.3,2.21,22.33,1.96,27.91Z"/>
  <path d="M-2812.41-1167.22l-31.97,15.92c5.3-11.93,20.01-15.57,31.97-15.92Z"/>
  <path d="M-3128.32-463.39c-4.89,7.84-6.42,19.64-15.95,23.95-.44-9.44,3.66-24.88,15.95-23.95Z"/>
  <path d="M-3820.18-391.42c2.02,12.79-6.85,22.33-15.9,9.98l9.98-9.96,5.92-.02h0Z"/>
  <polygon points="-3496.62 -942.94 -3498.21 -931.34 -3512.23 -947.27 -3496.62 -942.94"/>
  <polygon points="-3112.32 -483.38 -3116.77 -471.93 -3128.32 -471.46 -3123.87 -482.91 -3112.32 -483.38"/>
  <path d="M-2860.43-355.48h-3.9l-4.03-15.95c12.93.02,11.72,5.64,7.93,15.95Z"/>
  <path d="M-3012.34-531.45c-7.46,1.07-13.86.03-15.99-7.92,7.46-1.07,13.86-.03,15.99,7.92Z"/>
  <polygon points="-2800.39 -1063.25 -2812.35 -1051.29 -2812.37 -1063.27 -2800.39 -1063.25"/>
  <g>
    <path d="M54.95,84.39c.88.68,1.6,1.09,2.14,1.22.54.14.87.36.97.66s.19.66.25,1.07c.07.14.14.39.2.76.07.37.14,1.02.2,1.94.07.92.14,2.16.2,3.72.07,1.56.1,3.64.1,6.22v22.63c0,4.83-.1,8.65-.31,11.47-.2,2.82-.34,4.6-.41,5.35,0,.48-.09.87-.25,1.17-.17.31-.46.56-.87.76-.41.2-.99.41-1.73.61-.75.2-1.73.44-2.96.71-.27.14-.41.37-.41.71-.14.34-.19.87-.15,1.58.03.71.15,1.14.36,1.27,3.12.27,6.15,1.02,9.07,2.24,2.92,1.22,5.74,2.46,8.46,3.72s5.35,2.34,7.9,3.26c2.55.92,5.03,1.22,7.44.92,2.41-.31,4.76-1.48,7.03-3.52,2.28-2.04,4.5-5.33,6.68-9.89.14-.34.22-.54.25-.61s-.02-.17-.15-.31c-.27-.14-.73-.36-1.38-.66-.65-.31-1.07-.42-1.27-.36-1.9,2.24-3.76,3.91-5.55,4.99-1.8,1.09-3.62,1.73-5.45,1.94s-3.77.03-5.81-.51-4.25-1.33-6.62-2.34c-.82-.34-1.39-.98-1.73-1.94-.34-.95-.56-2.09-.66-3.41s-.12-2.79-.05-4.38c.07-1.59.1-3.24.1-4.94,0-4.08.08-6.96.25-8.66.17-1.7.32-2.72.46-3.06.14-.47.51-.78,1.12-.92.34-.07.88-.12,1.63-.15s2.04-.05,3.87-.05,3.36.31,4.79.92,2.75,1.21,3.98,1.78c1.22.58,2.36.97,3.41,1.17s2.05-.14,3.01-1.02c.95-.88,1.89-2.45,2.8-4.69.92-2.24,1.85-5.5,2.8-9.78-.54-.14-1.27-.15-2.19-.05s-1.44.29-1.58.56c-1.09,2.18-2.29,3.74-3.62,4.69-1.33.95-2.74,1.56-4.23,1.83-1.5.27-3.08.34-4.74.2-1.67-.14-3.38-.2-5.15-.2l-5.4-.51c-.75,0-1.12-.65-1.12-1.94-.07-3.47-.1-7.24-.1-11.31v-11.62c0-.75.08-1.48.25-2.19s.7-1.14,1.58-1.27c.27,0,.7-.03,1.27-.1.58-.07,1.43-.15,2.55-.25,1.12-.1,2.6-.22,4.43-.36,1.83-.14,4.14-.34,6.93-.61,1.49,0,2.75.19,3.77.56,1.02.37,1.89,1,2.6,1.89.71.88,1.34,2.02,1.89,3.41.54,1.39,1.12,3.08,1.73,5.04.14.34.37.6.71.76.34.17,1.29.22,2.85.15,1.56-5.1,2.75-8.83,3.57-11.21s1.05-4.01.71-4.89-1.41-1.26-3.21-1.12-4.6.2-8.41.2l-23.54,2.14c-3.67,0-6.69-.05-9.07-.15s-4.35-.15-5.91-.15h-3.36c-.34,0-.51.2-.51.61l-.31,2.24c-.07.27,0,.44.2.51,1.56.34,2.79.85,3.67,1.53l.03.02Z"/>
    <path d="M122.47,132.45c-2.07,2.14-4.21,4.33-6.42,6.57-2.21,2.24-4.23,4.31-6.06,6.22s-3.06,3.12-3.67,3.67c-.81.75-1.44,1.31-1.89,1.68-.44.37-.97.83-1.58,1.38-.54.41-.68.88-.41,1.43.2.41.37.78.51,1.12s.27.58.41.71c.14.2.37.31.71.31,3.94-.41,7.02-1.41,9.22-3.01,2.21-1.6,4.11-3.57,5.71-5.91s3.16-4.94,4.69-7.8c1.53-2.85,3.52-5.74,5.96-8.66.34.48.88,1.39,1.63,2.75s1.61,2.84,2.6,4.43c.98,1.6,2,3.09,3.06,4.48,1.05,1.39,2.09,2.33,3.11,2.8l3.06,1.02c2.17,0,4.11.05,5.81.15,1.7.1,2.99.19,3.87.26.68,0,1.09-.2,1.22-.61.14-.14.31-.39.51-.76s.37-.73.51-1.07c.14-.34.15-.59.05-.76-.1-.17-.43-.29-.97-.36-1.16-.27-2.12-.54-2.9-.82-.78-.27-1.46-.61-2.04-1.02-.58-.41-1.11-.87-1.58-1.38-.48-.51-1.02-1.17-1.63-1.99-.68-.88-1.41-1.9-2.19-3.06-.78-1.15-1.55-2.34-2.29-3.57-.75-1.22-1.44-2.38-2.09-3.47s-1.17-2-1.58-2.75c-.48-.75-.58-1.26-.31-1.53l9.38-8.97c1.83-1.09,3.09-2.05,3.77-2.9.68-.85,1-1.56.97-2.14s-.34-1.07-.92-1.48-1.26-.73-2.04-.97-1.56-.39-2.34-.46-1.38-.1-1.78-.1l-5.91.2c-.2.34-.43.83-.66,1.48-.24.65-.39,1.11-.46,1.38,1.63.41,2.72.76,3.26,1.07s.82.63.82.97c0,.41-.27,1.04-.82,1.89-.54.85-1.17,1.77-1.89,2.75-.71.99-1.43,1.9-2.14,2.75s-1.24,1.44-1.58,1.78c-1.09-1.56-2.07-3.02-2.96-4.38-.88-1.36-1.63-2.61-2.24-3.77-.55-.88-.71-1.49-.51-1.83.2-.34.98-.68,2.34-1.02.2-.27.32-.77.36-1.48.03-.71-.02-1.24-.15-1.58-1.63-.07-3.33-.2-5.1-.41-1.77-.2-3.5-.41-5.2-.61s-3.35-.39-4.94-.56c-1.6-.17-3.04-.29-4.33-.36-.41,0-.61.31-.61.92v1.12c0,.48.31.82.92,1.02,1.43.48,2.65,1.14,3.67,1.99s2,2,2.96,3.47c.95,1.46,2.02,3.25,3.21,5.35,1.19,2.11,2.67,4.62,4.43,7.54.34.54.49.95.46,1.22-.03.27-.15.55-.36.82-1.02,1.09-2.57,2.7-4.64,4.84h0Z"/>
    <path d="M171.45,111.71c.47-.54,1.04-.97,1.68-1.27.65-.31,1.54-.46,2.7-.46,1.43,0,2.84.31,4.23.92s2.63,1.36,3.72,2.24c.88.81,1.7,1.41,2.45,1.78.75.37,1.63.22,2.65-.46.81-.41,1.66-1.02,2.55-1.83.88-.82,1.33-1.8,1.33-2.96,0-.88-.48-1.66-1.43-2.34-.82-.68-1.89-1.27-3.21-1.78-1.33-.51-2.74-.87-4.23-1.07-.54-.13-1.14-.29-1.78-.46-.65-.17-1.24-.42-1.78-.76-1.02-.47-1.77-1.02-2.24-1.63-.48-.61-.82-1.19-1.02-1.73s-.34-1-.41-1.38c-.07-.37-.17-.56-.31-.56s-.27.2-.41.61-.31.88-.51,1.43-.48,1.09-.82,1.63c-.34.54-.75.95-1.22,1.22-1.29.75-2.48,1.36-3.57,1.83-1.09.48-2.14,1.05-3.16,1.73s-2.04,1.6-3.06,2.75c-1.02,1.16-2.04,2.75-3.06,4.79-.88,1.83-1.6,4.11-2.14,6.83s-.78,5.45-.71,8.2c.07,2.75.53,5.34,1.38,7.75s2.19,4.23,4.03,5.45c1.56,1.5,3.52,2.6,5.86,3.31,2.34.71,4.5,1.07,6.47,1.07,1.22,0,2.53-.19,3.92-.56s2.79-.83,4.18-1.38c1.39-.54,2.73-1.17,4.03-1.89,1.29-.71,2.38-1.38,3.26-1.99.34-.27.61-.83.82-1.68.2-.85.31-1.44.31-1.78,0-.27-.17-.46-.51-.56-.34-.1-.65-.12-.92-.05-.61.41-1.38.83-2.29,1.27-.92.44-1.87.85-2.85,1.22-.99.37-1.95.7-2.9.97-.95.27-1.8.41-2.55.41-.95,0-2.12-.25-3.52-.76-1.39-.51-2.77-1.54-4.13-3.11-.75-.75-1.55-2.16-2.39-4.23-.85-2.07-1.27-4.74-1.27-8s.24-5.79.71-8,1.19-3.79,2.14-4.74h-.02Z"/>
    <path d="M238.2,78.28c.68.34,1.22.9,1.63,1.68s.68,1.24.82,1.38c1.09,1.16,1.89,2.09,2.39,2.8.51.71,1.17,1.07,1.99,1.07.95,0,1.49-.27,1.63-.81.14-.47.44-1.04.92-1.68.47-.65.97-1.26,1.48-1.83.51-.58,1-1.09,1.48-1.53.47-.44.82-.7,1.02-.76.54-.07.82-.34.82-.82,0-.95-.12-1.58-.36-1.89s-.63-.56-1.17-.76c-.07,0-.29-.24-.66-.71s-.8-.98-1.27-1.53c-.48-.54-.9-1.09-1.27-1.63s-.56-.88-.56-1.02c-.27-.88-.68-1.33-1.22-1.33h-1.33c-.27,0-.54.31-.82.92-.07.14-.34.46-.82.97s-1,1.05-1.58,1.63c-.58.58-1.16,1.11-1.73,1.58-.58.48-1,.71-1.27.71-.41.07-.76.32-1.07.76s-.46.83-.46,1.17c0,.68.47,1.22,1.43,1.63h-.02Z"/>
    <path d="M237.9,113.95c.14-2.17.2-3.8.2-4.89s-.03-1.83-.1-2.24c-.2-1.15-.54-1.73-1.02-1.73h-.1c-.27,0-1.01.09-2.22.26-1.21.17-2.54.36-3.98.56-1.45.2-2.83.43-4.15.66-1.32.24-2.26.42-2.8.56-.48.14-.76.29-.87.46-.1.17-.12.46-.05.87.13.75.31,1.24.51,1.48.2.24.44.43.71.56,1.77.82,2.8,1.63,3.11,2.45s.46,1.6.46,2.34c.14,2.85.15,5.93.05,9.22-.1,3.3-.15,6.88-.15,10.75,0,.95.07,2.04.2,3.26.14,1.22.54,2.38,1.22,3.46,1.15,1.9,2.65,3.19,4.48,3.87,1.83.68,3.7,1.02,5.61,1.02,2.51,0,5.15-.46,7.9-1.38s5.32-2.14,7.69-3.67c2.38-1.53,4.42-3.31,6.12-5.35,1.7-2.04,2.75-4.21,3.16-6.52v-5.2c0-1.56.02-2.8.05-3.72s.08-1.68.15-2.29.12-1.15.15-1.63c.03-.47.05-1.05.05-1.73v-2.85c0-.61-.07-1.22-.2-1.83-.07-.82-.77-1.22-2.12-1.22-1.21,0-2.61.07-4.19.2-1.58.14-3.12.29-4.61.46s-2.76.34-3.81.51c-1.05.17-1.65.29-1.78.36-.27.07-.41.24-.41.51,0,.82.1,1.43.31,1.83.2.48.61.75,1.22.81,1.56.41,2.67.73,3.31.97.65.24,1.1.63,1.38,1.17.14.2.24.32.31.36.07.03.12.22.15.56s.07.95.1,1.83c.03.88.05,2.31.05,4.28,0,2.38-.05,4.65-.15,6.83s-.25,4.04-.46,5.61c-1.79,1.83-3.37,3.04-4.75,3.62s-2.65.87-3.82.87c-.55,0-1.26-.1-2.12-.31s-1.69-.56-2.48-1.07c-.79-.51-1.46-1.24-2.01-2.19-.55-.95-.83-2.17-.83-3.67.07-3.12.14-6.44.2-9.94.07-3.5.17-6.54.31-9.12h.02Z"/>
    <path d="M298.38,125.47c-1.32-1.09-2.7-2-4.13-2.75s-2.58-1.33-3.46-1.73c-.88-.41-1.77-.87-2.65-1.38-.88-.51-1.7-1.07-2.45-1.68s-1.36-1.29-1.83-2.04c-.48-.75-.71-1.56-.71-2.45,0-1.77.49-3.11,1.48-4.03.98-.92,1.95-1.38,2.9-1.38,1.22,0,2.31.31,3.26.92s1.8,1.34,2.55,2.19c.75.85,1.38,1.72,1.89,2.6s.93,1.6,1.27,2.14c.82,1.09,1.9,1.63,3.26,1.63.34,0,.65-.14.92-.41.27-.27.41-.58.41-.92-.61-1.49-.99-2.92-1.12-4.28-.14-1.36-.31-2.55-.51-3.57s-.54-1.82-1.02-2.39c-.48-.58-1.32-.87-2.55-.87-.82,0-1.85-.15-3.11-.46-1.26-.31-2.77-.46-4.54-.46-1.56,0-3.21.39-4.94,1.17s-3.35,1.75-4.84,2.9c-1.56,1.22-2.7,2.55-3.41,3.98s-1.07,3.02-1.07,4.79.43,3.21,1.28,4.54,1.83,2.46,2.92,3.42c1.09.95,2.22,1.75,3.38,2.39,1.16.65,2.05,1.14,2.66,1.48.75.41,1.65.88,2.71,1.43,1.06.54,2.07,1.17,3.02,1.89.96.71,1.78,1.5,2.46,2.34.68.85,1.03,1.85,1.03,3.01,0,.88-.19,1.68-.56,2.39s-.85,1.31-1.43,1.78c-.58.48-1.19.85-1.83,1.12-.65.27-1.24.41-1.78.41-.95,0-2.09-.31-3.41-.92-1.33-.61-2.63-1.73-3.92-3.36-1.16-1.43-2.12-2.77-2.9-4.03s-1.55-2.63-2.29-4.13c-.68.14-1.24.31-1.68.51s-.76.37-.97.51c-.14.14-.2.51-.2,1.12-.48,3.19-.49,5.71-.05,7.54.44,1.83,1.27,3.21,2.5,4.13s2.82,1.48,4.79,1.68,4.21.31,6.73.31c1.97,0,4.04-.26,6.2-.77,2.17-.51,4.02-1.24,5.57-2.19,3.43-2.1,5.15-4.99,5.15-8.66v-.1c0-2.04-.49-3.84-1.48-5.4-.99-1.56-2.14-2.89-3.47-3.97h-.03Z"/>
    <path d="M293.03,159.51c-.07,0-.29-.24-.67-.71-.38-.48-.81-.99-1.29-1.53s-.91-1.09-1.29-1.63c-.38-.54-.57-.88-.57-1.02-.27-.88-.69-1.33-1.23-1.33h-1.34c-.27,0-.55.31-.82.92-.07.14-.34.46-.82.97s-1.01,1.05-1.59,1.63-1.16,1.1-1.74,1.58c-.58.47-1,.71-1.27.71-.41.07-.76.32-1.07.76-.31.44-.46.83-.46,1.17,0,.68.47,1.22,1.43,1.63.68.34,1.22.9,1.63,1.68s.68,1.24.82,1.38c1.1,1.15,1.9,2.09,2.42,2.8.51.71,1.18,1.07,2.01,1.07.96,0,1.51-.27,1.65-.82.14-.48.44-1.04.93-1.68.48-.65.98-1.26,1.49-1.83.51-.58,1.01-1.09,1.49-1.53.48-.44.82-.7,1.03-.76.54-.07.82-.34.82-.82,0-.95-.12-1.58-.36-1.89s-.63-.56-1.17-.76h-.03Z"/>
    <path d="M312.7,78.28c.68.34,1.22.9,1.63,1.68s.68,1.24.82,1.38c1.09,1.16,1.89,2.09,2.39,2.8s1.17,1.07,1.99,1.07c.95,0,1.49-.27,1.63-.81.13-.47.44-1.04.92-1.68.47-.65.97-1.26,1.48-1.83.51-.58,1-1.09,1.48-1.53.47-.44.82-.7,1.02-.76.54-.07.82-.34.82-.82,0-.95-.12-1.58-.36-1.89s-.63-.56-1.17-.76c-.07,0-.29-.24-.66-.71s-.8-.98-1.27-1.53c-.48-.54-.9-1.09-1.27-1.63s-.56-.88-.56-1.02c-.27-.88-.68-1.33-1.22-1.33h-1.33c-.27,0-.54.31-.82.92-.07.14-.34.46-.82.97s-1,1.05-1.58,1.63c-.58.58-1.16,1.11-1.73,1.58-.58.48-1,.71-1.27.71-.41.07-.76.32-1.07.76s-.46.83-.46,1.17c0,.68.47,1.22,1.43,1.63h-.02Z"/>
    <path d="M323.1,143.66c.61-1.12,1.12-2.63,1.53-4.54.41-1.9.61-4.42.61-7.54v-12.64c0-2.58.03-5.11.1-7.59.07-2.48.14-4.57.2-6.27,0-.75-.1-1.12-.31-1.12-.14,0-.27.03-.41.1l-.41.1c-1.09.34-2.24.6-3.46.76-1.22.17-2.46.31-3.72.41-1.26.1-2.46.2-3.62.31-1.16.1-2.21.29-3.16.56-.27.07-.46.2-.56.41s-.32.71-.66,1.53c-.27.75-.2,1.16.2,1.22,1.09.2,1.95.51,2.6.92.65.41,1.14.83,1.48,1.27.34.44.56.83.66,1.17s.15.58.15.71l.31,10.5c.07,1.63.08,3.36.05,5.2-.04,1.83-.09,3.57-.15,5.2-.07,1.63-.14,3.06-.2,4.28-.07,1.22-.14,2.04-.2,2.45-.14,1.43-.56,2.62-1.27,3.57-.71.95-1.85,1.6-3.41,1.94-.48,0-.71.17-.71.51v1.33c0,.54.07.92.2,1.12.07.34.34.51.81.51.07,0,.44-.02,1.12-.05s1.51-.12,2.5-.25c.98-.14,1.99-.37,3.01-.71,1.02-.34,1.94-.78,2.75-1.33.61-.41,1.27-.9,1.99-1.48.71-.58,1.38-1.43,1.99-2.55h-.01Z"/>
    <path d="M375.23,107.43c-.1-1.36-1.14-2.22-3.11-2.6-1.97-.37-5.34-.05-10.09.97-.27.14-.48.27-.61.41s-.37.48-.71,1.02c-.34.88-.34,1.39,0,1.53,1.22.27,2.21.68,2.96,1.22s1.12,1.09,1.12,1.63c.07.41-.05,1.02-.36,1.83-.31.81-.63,1.73-.97,2.75-.68,2.18-1.75,4.64-3.21,7.39s-2.9,5.83-4.33,9.22c-.41.95-.75.99-1.02.1-.48-.95-.97-2.21-1.48-3.77s-.99-3.16-1.43-4.79-.87-3.23-1.27-4.79c-.41-1.56-.78-2.82-1.12-3.77-.54-1.7-.8-2.78-.76-3.26.03-.47.12-.88.25-1.22.27-.41.87-.71,1.78-.92.92-.2,1.82-.47,2.7-.82.2-.14.36-.27.46-.41.1-.14.15-.37.15-.71v-1.22c-.07-.34-.27-.51-.61-.51-1.16.07-2.53-.07-4.13-.41-1.6-.34-3.3-.73-5.1-1.17-1.8-.44-3.6-.87-5.4-1.27-1.8-.41-3.48-.61-5.04-.61-.07,0-.19.15-.36.46-.17.31-.32.66-.46,1.07-.14.41-.25.78-.36,1.12-.1.34-.12.51-.05.51.95.27,1.7.73,2.24,1.38.54.65,1.02,1.43,1.43,2.34s.8,1.99,1.17,3.21c.37,1.22.83,2.55,1.38,3.97.82,1.97,1.7,4.23,2.65,6.78.95,2.55,1.87,5.03,2.75,7.44s1.7,4.59,2.45,6.52c.75,1.94,1.26,3.28,1.53,4.03.68,1.77,1.19,2.97,1.53,3.62s.82.97,1.43.97,1.21-.05,1.78-.15c.58-.1,1.03-.19,1.38-.25.34-.2.61-.58.82-1.12.14-.2.42-.82.87-1.83.44-1.02.93-2.21,1.48-3.57,1.36-3.4,3.06-6.73,5.1-9.99,2.04-3.26,4.01-6.32,5.91-9.17s3.52-5.42,4.84-7.69c1.33-2.28,1.94-4.09,1.83-5.45v-.02Z"/>
    <path d="M333.8,95.6h85.92c.54,0,1.03-.2,1.48-.61.44-.41.66-.95.66-1.63,0-.61-.22-1.14-.66-1.58s-.93-.7-1.48-.76h-207.3c.07-2.24.14-4.42.2-6.52.06-4.35.15-8.31.26-11.87.12-3.57.23-6.44.35-8.61,0-.54-.17-.82-.5-.82-.07,0-.14.02-.2.05-.07.03-.17.05-.3.05-1.35-.2-2.71-.54-4.09-1.02-1.38-.47-2.71-.92-3.99-1.33-1.28-.41-2.48-.7-3.6-.87s-2.12-.08-3.01.25c-.61.27-.95.58-1.02.92-.27.95-.41,1.56-.41,1.83,0,.2.1.37.31.51,1.22.14,2.19.48,2.9,1.02s1.26,1.21,1.63,1.99.63,1.62.76,2.5c.14.88.24,1.73.31,2.55.07.88.12,2.74.15,5.55.03,2.82.05,6.03.05,9.63v4.18h-6.76c-.21-.1-.44-.17-.68-.2h-40.97c-.31,0-.6.07-.87.2h-43.46c-.68,0-1.27.22-1.78.66s-.76,1-.76,1.68.25,1.22.76,1.63,1.11.61,1.78.61h47.39c.49,0,.93-.14,1.31-.41h34.18c.26.27.56.41.89.41h8.97v12.43c0,2.85-.02,6.2-.05,10.04-.04,3.84-.09,7.69-.15,11.57-.07,3.87-.15,7.54-.25,11.01s-.22,6.22-.36,8.26c-.07,1.02-.27,1.75-.61,2.19s-1.02.87-2.04,1.27c-.34.14-.73.31-1.17.51s-.8.37-1.07.51c-.34.2-.51.65-.51,1.33l-.1,1.33c0,.27.17.41.51.41,3.8-.41,6.76-.66,8.87-.76,2.11-.1,3.67-.65,4.69-1.63,1.02-.99,1.63-2.74,1.83-5.25.2-2.51.31-6.35.31-11.52,0-3.26.02-7.05.05-11.36s.07-8.82.1-13.5c.03-4.69.08-9.44.15-14.27v-2.55h121.38,0Z"/>
    <path d="M391.59,78.28c.68.34,1.22.9,1.63,1.68s.68,1.24.82,1.38c1.09,1.16,1.89,2.09,2.4,2.8.51.71,1.17,1.07,1.99,1.07.95,0,1.49-.27,1.63-.81.27-1.02.71-1.9,1.33-2.65.61-.75,1.24-1.39,1.89-1.94.64-.54,1.22-.98,1.73-1.32s.76-.58.76-.71c0-.95-.12-1.58-.36-1.89s-.63-.56-1.17-.76c-.07,0-.29-.22-.66-.66s-.8-.95-1.27-1.53c-.48-.58-.9-1.14-1.27-1.68s-.56-.88-.56-1.02c-.27-.88-.68-1.33-1.22-1.33h-1.33c-.2,0-.48.31-.81.92-.27.82-.78,1.53-1.53,2.14s-1.53,1.19-2.34,1.73c-.82.55-1.53,1.04-2.14,1.48-.61.44-.92.93-.92,1.48,0,.68.47,1.22,1.43,1.63h-.03Z"/>
    <path d="M406.35,139.32c.08-.04.15-.06.22-.1-.1.02-.17.06-.22.1Z"/>
    <path d="M391.28,125.87c2.38,1.29,4.79,2.16,7.24,2.6,2.45.44,5.13.66,8.05.66,1.63,0,2.97-.05,4.03-.15,1.05-.1,1.89-.36,2.5-.77s1.07-1,1.38-1.78.61-2.11.92-3.98c.31-1.87.14-3.89-.51-6.06-.65-2.17-1.68-4.21-3.11-6.11s-2.65-3.18-3.67-3.82c-1.02-.65-2.07-1.22-3.16-1.73s-2.14-1-3.16-1.48c-1.02-.47-1.77-1.02-2.24-1.63-.48-.61-.82-1.19-1.02-1.73-.2-.54-.34-1-.41-1.38-.07-.37-.17-.56-.31-.56s-.27.2-.41.61-.31.88-.51,1.43-.48,1.09-.82,1.63-.75.95-1.22,1.22c-1.29.75-2.48,1.39-3.57,1.94-1.09.54-2.12,1.19-3.11,1.94s-1.97,1.73-2.96,2.96c-.99,1.22-1.99,2.85-3.01,4.89-.68,1.43-1.22,2.67-1.63,3.72s-.73,2.06-.97,3.01c-.24.95-.39,1.95-.46,3.01-.07,1.05-.1,2.68-.1,4.89s.51,4.37,1.53,6.47c1.02,2.11,2,3.74,2.96,4.89.34.41.9.94,1.68,1.58.78.65,1.75,1.31,2.9,1.99,1.15.68,2.53,1.26,4.13,1.73s3.35.71,5.25.71c2.38,0,4.81-.75,7.29-2.24s3.24-2.68,2.29-3.57c-.8-.74-1.04-1.22-.73-1.43-5.92,2.69-10.07,3.07-12.41,1.13-2.38-1.97-3.5-6.25-3.36-12.84,0-.68.07-1.12.2-1.32s.31-.34.51-.41v-.02ZM391.13,116.34c.37-1.46.87-2.73,1.48-3.82.61-1.09,1.29-1.94,2.04-2.55s1.53-.92,2.34-.92c.88,0,1.71.25,2.5.76.78.51,1.48,1.19,2.09,2.04s1.09,1.8,1.43,2.85c.34,1.05.51,2.09.51,3.11v.1c0,1.5-.09,2.7-.25,3.62-.17.92-.41,1.6-.71,2.04-.31.44-.63.73-.97.87s-.71.2-1.12.2h-1.43c-.27,0-.87-.05-1.78-.15-.92-.1-1.87-.29-2.85-.56-.99-.27-1.87-.63-2.65-1.07s-1.17-1-1.17-1.68c0-1.77.19-3.38.56-4.84h-.02Z"/>
    <path d="M112.68,164.83c-.29-.37-.63-.77-1-1.2-.37-.42-.71-.85-1-1.28-.29-.42-.44-.69-.44-.8-.21-.69-.53-1.04-.96-1.04h-1.04c-.21,0-.43.24-.64.72-.05.11-.27.36-.64.76s-.78.83-1.24,1.28-.9.86-1.36,1.24c-.45.37-.78.56-1,.56-.32.05-.6.25-.84.6-.24.35-.36.65-.36.92,0,.53.37.96,1.12,1.27.53.27.96.71,1.28,1.32.32.61.53.97.64,1.08.85.9,1.47,1.63,1.87,2.19s.92.84,1.55.84c.74,0,1.17-.21,1.28-.64.11-.37.35-.81.72-1.32.37-.5.76-.98,1.16-1.44.4-.45.78-.85,1.16-1.2.37-.35.64-.54.8-.6.42-.05.64-.27.64-.64,0-.74-.09-1.24-.28-1.47-.19-.24-.49-.44-.92-.6-.05,0-.23-.18-.52-.56h.02Z"/>
    <path d="M152.42,212.74c-.05,1.54-.12,2.96-.2,4.27s-.17,2.33-.28,3.07c-.05.58-.2,1.24-.44,1.95s-.55,1.39-.92,2.03-.81,1.21-1.32,1.71c-.51.5-1.05.86-1.63,1.08l.24,1.27c.11.43.24.66.4.72.16.05.4.08.72.08,2.98-1.27,5.25-2.7,6.82-4.26,1.57-1.57,2.71-3.31,3.43-5.22.72-1.91,1.13-4,1.24-6.26s.16-4.72.16-7.37v-3.75c0-1.27-.05-2.31-.16-3.11-.27-1.81-.68-3.4-1.24-4.78-.56-1.38-1.37-2.5-2.43-3.35-1.01-.69-1.97-1.17-2.87-1.44l-2.63-1.2c-.8-.37-1.38-.8-1.75-1.28s-.64-.93-.8-1.36c-.16-.42-.27-.78-.32-1.08-.05-.29-.13-.44-.24-.44s-.21.16-.32.48c-.11.32-.24.69-.4,1.12-.16.43-.37.85-.64,1.27-.27.43-.59.75-.96.96-1.22.74-2.33,1.38-3.31,1.91s-1.93,1.3-2.83,2.31c-.05-.48-.08-.82-.08-1.04,0-.27-.03-.69-.08-1.27,0-.43-.36-.77-1.08-1.04-.72-.27-1.61-.42-2.67-.48-1.06-.05-2.22,0-3.47.2s-2.41.52-3.47,1c-.8.37-1.2.66-1.2.88-.11.59-.12,1-.04,1.24s.25.41.52.52c.8.27,1.43.67,1.91,1.2.48.53.84,1.08,1.08,1.63.24.56.4,1.09.48,1.59.08.51.12.86.12,1.08.11.85.19,1.93.24,3.23s.08,2.7.08,4.19v2.63c0,.9,0,1.82-.04,2.75s-.07,1.79-.12,2.59c-.05.8-.11,1.43-.16,1.91-.21,1.22-.59,2.02-1.12,2.39s-1.43.8-2.71,1.28l-.16,1.67c-.05.48.08.72.4.72.74,0,1.73-.07,2.95-.2,1.22-.13,1.97-.2,2.23-.2,3.24-.64,5.18-1.41,5.82-2.31.64-.9.93-1.46.88-1.67-.05-.21-.08-.5-.08-.88v-9.57c0-1.75,0-3.36.04-4.82s.04-2.54.04-3.23v-.48l1.43-1.43c.48-.48.96-.93,1.43-1.36.58-.16,1.18-.29,1.79-.4s1.21-.16,1.79-.16c.9,0,1.73.13,2.47.4.74.27,1.38.69,1.91,1.27.69.75,1.14,1.71,1.36,2.91.21,1.2.32,2.86.32,4.98,0,1.27,0,2.7-.04,4.26-.03,1.57-.07,3.12-.12,4.66l.03.03Z"/>
    <path d="M179.56,164.83c-.29-.37-.62-.77-1-1.2-.37-.42-.71-.85-1-1.28-.29-.42-.44-.69-.44-.8-.21-.69-.53-1.04-.96-1.04h-1.04c-.21,0-.43.24-.64.72-.05.11-.27.36-.64.76s-.78.83-1.24,1.28-.9.86-1.36,1.24c-.45.37-.78.56-1,.56-.32.05-.6.25-.84.6-.24.35-.36.65-.36.92,0,.53.37.96,1.12,1.27.53.27.96.71,1.28,1.32.32.61.53.97.64,1.08.85.9,1.47,1.63,1.87,2.19s.92.84,1.55.84c.74,0,1.17-.21,1.28-.64.11-.37.34-.81.72-1.32.37-.5.76-.98,1.16-1.44.4-.45.78-.85,1.16-1.2.37-.35.64-.54.8-.6.43-.05.64-.27.64-.64,0-.74-.09-1.24-.28-1.47-.19-.24-.49-.44-.92-.6-.05,0-.23-.18-.52-.56h.02Z"/>
    <path d="M178.41,188.18c-.32.21-.89.49-1.71.84-.82.35-1.75.74-2.79,1.2-1.04.45-2.11.9-3.23,1.36-1.12.45-2.13.89-3.03,1.32-.21.11-.32.48-.32,1.12,0,.59.11.93.32,1.04.85.21,1.51.41,1.99.6.48.19.84.4,1.08.64s.4.56.48.96c.08.4.12.92.12,1.56.05.8.09,2.03.12,3.71.03,1.67.04,3.52.04,5.54v5.58c0,3.88-.07,7.39-.2,10.52-.13,3.14-.28,5.39-.44,6.78-.21,1.65-.74,2.82-1.59,3.51-.16.16-.41.38-.76.68-.35.29-.72.58-1.12.88s-.8.54-1.2.76c-.4.21-.71.32-.92.32-.16,0-.78.08-1.87.24s-2.54.27-4.35.32c-1.81.05-3.92-.05-6.34-.32s-5.01-.82-7.77-1.67c-2.76-.85-5.67-2.07-8.73-3.67-3.06-1.59-6.12-3.69-9.21-6.3-.42-.27-.9-.31-1.43-.12s-1.06.46-1.59.84c-.47.33-.9.69-1.29,1.06-.32-.25-.76-1.7-1.34-4.37-.64-2.95-.85-7.93-.64-14.95s.08-11.16-.4-12.44c0-.69-.11-1.39-.32-2.11s-.69-1.5-1.44-2.35c-.74-.8-1.67-1.39-2.79-1.79s-2.29-.89-3.51-1.47c-.8-.37-1.38-.8-1.75-1.28s-.64-.93-.8-1.36c-.16-.42-.27-.78-.32-1.08-.05-.29-.13-.44-.24-.44s-.21.16-.32.48c-.11.32-.24.69-.4,1.12-.16.43-.37.85-.64,1.28s-.59.74-.96.96c-1.01.59-1.94,1.06-2.79,1.43-.85.37-1.66.79-2.43,1.24-.77.45-1.51.97-2.23,1.55-.72.59-1.4,1.41-2.03,2.47-.21.37-.53.86-.96,1.47-.43.61-.76,1.21-1,1.79-.24.59-.29,1.08-.16,1.47.13.4.6.6,1.4.6.11,0,.32-.03.64-.08.32-.05.69-.16,1.12-.32l5.02-1.51c.37-.11.56-.42.56-.96,0-.74,0-1.36.04-1.83.03-.48.07-.9.12-1.28.43-.27.84-.53,1.24-.8.4-.27.78-.5,1.16-.72,1.06,0,2.01.15,2.83.44.82.29,1.4.62,1.71,1,.37.27.68.86.92,1.79s.36,2.06.36,3.39v1.43c0,.16,0,.33-.04.52s-.04.49-.04.92c-2.13.32-4.09.97-5.9,1.95s-3.64,1.95-5.5,2.91c-.59.32-1.22.73-1.91,1.24-.69.51-1.34,1.06-1.95,1.67s-1.13,1.22-1.55,1.83c-.43.61-.64,1.18-.64,1.71,0,1.59.28,2.94.84,4.03s1.05,1.85,1.47,2.27c1.59,1.49,3.21,2.23,4.86,2.23.27,0,.77-.13,1.51-.4.74-.27,1.61-.61,2.59-1.04.98-.42,2-.89,3.07-1.39,1.06-.5,2.02-1,2.87-1.47.11.9.33,2.19.68,3.87.35,1.67.73,3.33,1.16,4.98.42,1.65.88,3.08,1.36,4.3s.9,1.83,1.28,1.83c.85,0,1.78-.09,2.79-.28.69-.13,1.34-.28,1.99-.44.42.37.9.73,1.48,1.07.67.4,1.24.76,1.71,1.08,1.97,1.33,4.3,2.4,7.02,3.23,2.71.82,5.54,1.47,8.49,1.95,2.95.48,5.9.8,8.85.96,2.95.16,5.62.24,8.01.24s4.28-.05,5.82-.16c1.54-.11,2.42-.19,2.63-.24.8-.32,1.7-.72,2.71-1.2,1.01-.48,2.02-1,3.03-1.55,1.01-.56,1.99-1.18,2.95-1.87.96-.69,1.78-1.43,2.47-2.23.96-1.06,1.71-2.34,2.27-3.83s.84-3.67.84-6.54v-15.7c0-1.75.03-3.57.08-5.46s.12-3.65.2-5.3c.08-1.65.15-3.1.2-4.34.05-1.25.08-2.14.08-2.67,0-.37-.16-.66-.48-.88-.37-.16-.77-.11-1.2.16v-.03ZM112.24,209.23c0,.53,0,1.09-.04,1.67-.03.59-.05,1.13-.08,1.63-.03.51-.04.89-.04,1.16-.16.69-.61,1.25-1.36,1.67-.96.43-1.75.73-2.39.92s-1.12.28-1.43.28h-.08c-.59,0-.97-.13-1.16-.4-.19-.27-.27-.61-.24-1.04s.11-.94.24-1.56c.13-.61.2-1.24.2-1.87,0-.74.09-1.3.28-1.67s.44-.69.76-.96c.42-.27.73-.5.92-.72.19-.21.41-.42.68-.64.27-.21.65-.41,1.16-.6.5-.18,1.24-.36,2.19-.52.27,0,.4.45.4,1.36v1.29Z"/>
    <path d="M219.06,226.53c-.27.16-.77.36-1.51.6-.74.24-1.41.36-1.99.36-.32,0-.8-1.47-1.43-4.42-.64-2.95-.85-7.93-.64-14.95s.08-11.16-.4-12.44c0-.69-.11-1.39-.32-2.11-.21-.72-.69-1.5-1.44-2.35-.74-.8-1.67-1.39-2.79-1.79s-2.29-.89-3.51-1.47c-.8-.37-1.38-.8-1.75-1.28s-.64-.93-.8-1.36c-.16-.42-.27-.78-.32-1.08-.05-.29-.13-.44-.24-.44s-.21.16-.32.48c-.11.32-.24.69-.4,1.12s-.37.85-.64,1.28c-.27.43-.59.74-.96.96-1.01.59-1.94,1.06-2.79,1.43s-1.66.79-2.43,1.24c-.77.45-1.51.97-2.23,1.55-.72.59-1.4,1.41-2.03,2.47-.21.37-.53.86-.96,1.47s-.76,1.21-1,1.79c-.24.59-.29,1.08-.16,1.47.13.4.6.6,1.4.6.11,0,.32-.03.64-.08s.69-.16,1.12-.32l5.02-1.51c.37-.11.56-.42.56-.96,0-.74.01-1.36.04-1.83.03-.48.07-.9.12-1.28.43-.27.84-.53,1.24-.8s.78-.5,1.16-.72c1.06,0,2.01.15,2.83.44.82.29,1.4.62,1.71,1,.37.27.68.86.92,1.79.24.93.36,2.06.36,3.39v1.43c0,.16-.01.33-.04.52s-.04.49-.04.92c-2.13.32-4.09.97-5.9,1.95s-3.64,1.95-5.5,2.91c-.59.32-1.22.73-1.91,1.24-.69.51-1.34,1.06-1.95,1.67-.61.61-1.13,1.22-1.55,1.83-.43.61-.64,1.18-.64,1.71,0,1.59.28,2.94.84,4.03s1.05,1.85,1.47,2.27c1.59,1.49,3.21,2.23,4.86,2.23.27,0,.77-.13,1.51-.4.74-.27,1.61-.61,2.59-1.04.98-.42,2-.89,3.07-1.39,1.06-.5,2.02-1,2.87-1.47.11.9.33,2.19.68,3.87.35,1.67.73,3.33,1.16,4.98.42,1.65.88,3.08,1.36,4.3.48,1.22.9,1.83,1.28,1.83.85,0,1.78-.09,2.79-.28s1.98-.4,2.91-.64,1.77-.49,2.51-.76c.74-.27,1.28-.48,1.59-.64.42-.21.64-.48.64-.8l.24-1.43c.05-.27-.04-.55-.28-.84s-.44-.39-.6-.28l-.02.03ZM205.03,209.23c0,.53-.01,1.09-.04,1.67-.03.59-.05,1.13-.08,1.63-.03.51-.04.89-.04,1.16-.16.69-.61,1.25-1.36,1.67-.96.43-1.75.73-2.39.92s-1.12.28-1.43.28h-.08c-.59,0-.97-.13-1.16-.4-.19-.27-.27-.61-.24-1.04s.11-.94.24-1.56c.13-.61.2-1.24.2-1.87,0-.74.09-1.3.28-1.67s.44-.69.76-.96c.42-.27.73-.5.92-.72.19-.21.41-.42.68-.64.27-.21.65-.41,1.16-.6.5-.18,1.24-.36,2.19-.52.27,0,.4.45.4,1.36v1.29Z"/>
    <path d="M197.38,169.17c.32.61.53.97.64,1.08.85.9,1.47,1.63,1.87,2.19s.92.84,1.55.84c.74,0,1.17-.21,1.28-.64.11-.37.35-.81.72-1.32.37-.5.76-.98,1.16-1.44.4-.45.78-.85,1.16-1.2.37-.35.64-.54.8-.6.42-.05.64-.27.64-.64,0-.74-.09-1.24-.28-1.47-.19-.24-.49-.44-.92-.6-.05,0-.23-.18-.52-.56-.29-.37-.63-.77-1-1.2-.37-.42-.71-.85-1-1.28-.29-.42-.44-.69-.44-.8-.21-.69-.53-1.04-.96-1.04h-1.04c-.21,0-.43.24-.64.72-.05.11-.27.36-.64.76-.37.4-.78.83-1.24,1.28s-.9.86-1.36,1.24c-.45.37-.78.56-1,.56-.32.05-.6.25-.84.6s-.36.65-.36.92c0,.53.37.96,1.12,1.27.53.27.96.71,1.28,1.32h.02Z"/>
    <path d="M262.67,165.07c-.32.05-.6.25-.84.6s-.36.65-.36.92c0,.53.37.96,1.12,1.27.53.27.96.71,1.28,1.32s.53.97.64,1.08c.85.9,1.47,1.63,1.87,2.19s.92.84,1.55.84c.74,0,1.17-.21,1.28-.64.11-.37.35-.81.72-1.32.37-.5.76-.98,1.16-1.44.4-.45.78-.85,1.16-1.2.37-.35.64-.54.8-.6.43-.05.64-.27.64-.64,0-.74-.09-1.24-.28-1.47-.19-.24-.49-.44-.92-.6-.05,0-.23-.18-.52-.56-.29-.37-.63-.77-1-1.2-.37-.42-.7-.85-1-1.28-.29-.42-.44-.69-.44-.8-.21-.69-.53-1.04-.96-1.04h-1.04c-.21,0-.43.24-.64.72-.05.11-.27.36-.64.76-.37.4-.78.83-1.24,1.28s-.9.86-1.36,1.24c-.45.37-.78.56-1,.56h.02Z"/>
    <path d="M279.09,177.82h-22.48c-.14,0-.29.06-.43.16h-25.4c0-2.28.03-4.45.08-6.5s.09-3.87.12-5.46c.03-1.59.05-2.91.08-3.95s.04-1.69.04-1.95c0-1.38-.21-2.07-.64-2.07s-1.17-.12-2.23-.36-2.18-.46-3.35-.68c-1.17-.21-2.29-.36-3.35-.44s-1.83.04-2.31.36c-.74.59-.74,1.17,0,1.75.69.64,1.24,1.34,1.63,2.11.4.77.7,1.53.92,2.27.21.74.36,1.47.44,2.19.08.72.15,1.34.2,1.87.05.27.08.96.08,2.07,0,1.01.01,2.21.04,3.59.03,1.38.04,2.87.04,4.46v.72h-3.72c-.16-.07-.32-.14-.5-.16h-92.47c-.08,0-.14.03-.21.03-.04,0-.07-.03-.11-.03h-33.4c-.28,0-.53.08-.76.19-.32-.55-.67-1.11-1.07-1.67-.74-1.04-1.67-1.98-2.79-2.83-2.66-1.97-5.34-3.23-8.05-3.79s-5.16-.84-7.33-.84c-.32,0-.85,0-1.59.04-.74.03-1.55.07-2.43.12-.88.05-1.74.09-2.59.12-.85.03-1.54.04-2.07.04-.69,0-1.67-.11-2.95-.32s-2.58-.44-3.91-.68c-1.33-.24-2.55-.46-3.67-.68-1.12-.21-1.89-.32-2.31-.32-.11.16-.24.49-.4,1s-.24.84-.24,1c0,.59.27.88.8.88,1.12,0,1.99.19,2.63.56s1.14.8,1.51,1.28.64.96.8,1.43c.16.48.27.85.32,1.12.16.48.29,1.09.4,1.83s.17,1.67.2,2.79.05,2.47.08,4.07c.03,1.59.04,3.48.04,5.66v13.39c0,3.51-.05,6.25-.16,8.21-.11,1.97-.21,3.24-.32,3.83-.11.74-.27,1.61-.48,2.59-.21.98-.55,1.93-1,2.83-.45.9-1.04,1.69-1.75,2.35-.72.66-1.63,1.05-2.75,1.16l.16,2.15c.05.42.29.64.72.64.69,0,1.26-.03,1.71-.08s.9-.15,1.36-.28c.45-.13.97-.33,1.55-.6s1.35-.64,2.3-1.12c1.21-.59,2.31-1.17,3.28-1.75.97-.59,1.79-1.29,2.45-2.11s1.13-1.83,1.42-3.03.38-2.67.28-4.42c0-.11-.05-.45-.16-1.04-.11-.58-.17-1.2-.2-1.83-.03-.64,0-1.22.04-1.75.05-.53.24-.8.56-.8h3.52c3.09,0,6.1-.62,9.03-1.87s5.52-2.99,7.75-5.22c.8-.8,1.63-1.82,2.48-3.07.85-1.25,1.63-2.58,2.32-3.99s1.27-2.84,1.72-4.3.68-2.83.68-4.1c0-.59-.08-1.34-.24-2.27-.05-.3-.14-.61-.22-.92h32.75s.09-.02.13-.03c.06,0,.12.03.18.03h91.02c.27.1.56.16.89.16h4.78v21.25c0,3.78.01,6.78.04,8.99s.08,3.93.16,5.15c.08,1.23.19,2.08.32,2.56s.33.88.6,1.2c.32.32.82.42,1.51.32.16-.05.74.09,1.75.44s2.15.72,3.43,1.12,2.54.77,3.79,1.12c1.25.35,2.19.52,2.83.52,1.33,0,2.72-.37,4.19-1.12,1.46-.75,2.88-1.74,4.26-3,1.38-1.25,2.71-2.65,3.99-4.19,1.28-1.54,2.36-3.13,3.27-4.75.9-1.62,1.58-3.21,2.03-4.75s.6-2.9.44-4.07v-.08c0-1.92-.49-3.78-1.47-5.59s-2.25-3.46-3.79-4.95c-.59-.64-1.3-1.33-2.15-2.08-.85-.74-1.74-1.44-2.67-2.08-.93-.64-1.82-1.17-2.67-1.6-.85-.43-1.54-.61-2.07-.56-.16,0-.55.27-1.16.8-.61.53-1.34,1.15-2.19,1.84s-1.74,1.37-2.67,2.04c-.93.66-1.77,1.13-2.51,1.4-.74.43-1.12.19-1.12-.72v-9.19h26.71c.27,0,.52-.06.77-.16h20.92c.69,0,1.04-.58,1.04-1.75,0-.48-.11-.89-.32-1.24-.21-.35-.45-.54-.72-.6h-.03ZM83.23,185.07c-.05,2.13-.36,4.32-.92,6.58s-1.36,4.32-2.4,6.18c-1.04,1.86-2.36,3.39-3.96,4.58-1.6,1.2-3.5,1.79-5.68,1.79-.8,0-1.56-.05-2.28-.16s-1.32-.29-1.8-.56c-.16-.05-.29-.37-.4-.96-.11-.58-.2-1.24-.28-1.95-.08-.72-.13-1.42-.16-2.11s-.04-1.17-.04-1.44c0-1.01,0-2.6.04-4.78s.07-4.45.12-6.81c.05-2.36.09-4.57.12-6.62.03-2.05.07-3.44.12-4.19.05-.58.15-1.01.28-1.28s.33-.5.6-.72c.16-.11.57-.28,1.24-.52s1.59-.36,2.76-.36c2.99,0,5.34.57,7.05,1.71s2.98,2.47,3.8,3.99,1.34,3,1.52,4.46c.19,1.46.28,2.48.28,3.07v.1ZM231.34,194.4c.43-.27,1.1-.49,2.03-.68.93-.19,1.85-.28,2.75-.28,1.12,0,2.3.23,3.55.68s2.59,1.5,4.03,3.15c1.06,1.17,1.87,2.5,2.43,3.99s.84,3,.84,4.54v.08c.16,1.12-.04,2.55-.6,4.3s-1.3,3.45-2.23,5.1c-.93,1.65-1.95,3.07-3.07,4.27s-2.18,1.79-3.19,1.79-2.1-.43-3.27-1.28c-1.17-.85-2.07-1.75-2.71-2.71-1.01-1.49-1.51-3.61-1.51-6.38v-8.21c0-2.02.01-3.51.04-4.46.03-.96.09-1.67.2-2.15.05-.9.29-1.49.72-1.75h0Z"/>
    <path d="M272.39,187.94c-.11,0-.21.03-.32.08l-.32.08c-.85.27-1.75.47-2.71.6s-1.93.24-2.91.32-1.93.16-2.83.24-1.73.23-2.47.44c-.21.05-.36.16-.44.32s-.25.56-.52,1.2c-.21.59-.16.9.16.96.85.16,1.53.4,2.03.72s.89.65,1.16,1,.44.65.52.92.12.45.12.56l.24,8.21c.05,1.28.07,2.63.04,4.07-.03,1.43-.07,2.79-.12,4.07-.05,1.28-.11,2.39-.16,3.35-.05.96-.11,1.59-.16,1.91-.11,1.12-.44,2.05-1,2.79-.56.74-1.45,1.25-2.67,1.51-.37,0-.56.13-.56.4v1.04c0,.42.05.72.16.88.05.27.27.4.64.4.05,0,.35,0,.88-.04s1.18-.09,1.95-.2c.77-.11,1.55-.29,2.35-.56.8-.27,1.52-.61,2.15-1.04.48-.32,1-.71,1.55-1.16s1.08-1.12,1.55-1.99c.48-.88.88-2.06,1.2-3.55s.48-3.45.48-5.9v-9.88c0-2.02.03-4,.08-5.94s.11-3.57.16-4.9c0-.58-.08-.88-.24-.88v-.03Z"/>
    <path d="M359.12,196.04c-1.12-1.14-2.4-2.07-3.87-2.79-1.46-.72-2.94-1.24-4.42-1.55-.48-.11-.72-.29-.72-.56,0-.11.43-.38,1.28-.84.85-.45,1.81-1.08,2.87-1.87,1.54-1.17,2.62-2.47,3.23-3.91.61-1.44.92-2.92.92-4.46,0-1.33-.23-2.51-.68-3.55-.45-1.04-1.01-1.95-1.67-2.75s-1.39-1.46-2.19-1.99-1.51-.93-2.15-1.2c-2.18-.85-4.29-1.47-6.34-1.87s-3.92-.6-5.62-.6c-1.59,0-3.23.11-4.9.32s-3.32.47-4.94.76-3.23.6-4.82.92c-1.59.32-3.11.59-4.54.8l-.96,2.39c1.28.37,2.34.61,3.19.72s1.54.21,2.07.32.93.25,1.2.44c.27.19.4.52.4,1,.05.8.09,1.77.12,2.91s.04,2.41.04,3.79v18.57c0,1.38-.03,3.04-.08,4.98s-.13,4.26-.24,6.98c0,1.01-.08,1.87-.24,2.59s-.43,1.36-.8,1.91c-.37.56-.88,1.08-1.51,1.55-.64.48-1.46,1.01-2.47,1.59,0,.48.13.97.4,1.47s.53.76.8.76c.64,0,1.73-.24,3.27-.72,1.54-.48,3.03-1.04,4.46-1.67,1.33-.59,2.35-1.34,3.07-2.27.72-.93,1.25-2.18,1.59-3.75.35-1.57.54-3.56.6-5.98.05-2.42.08-5.41.08-8.97,0-1.59.12-2.78.36-3.55s.56-1.3.96-1.59.86-.42,1.4-.4c.53.03,1.09.04,1.67.04,1.22,0,2.56.16,4.03.48,1.46.32,2.82.92,4.07,1.79,1.25.88,2.3,2.11,3.15,3.71.85,1.59,1.28,3.64,1.28,6.14,0,1.97-.27,4.01-.8,6.14s-1.43,4.09-2.71,5.9-2.98,3.35-5.1,4.62c-2.13,1.28-4.76,2.02-7.89,2.23l1.43,2.87c.32,0,1.02-.07,2.11-.2,1.09-.13,2.3-.32,3.63-.56,1.33-.24,2.66-.55,3.99-.92s2.39-.8,3.19-1.28c3.29-1.91,5.77-3.76,7.41-5.54,1.65-1.78,2.83-3.47,3.55-5.06s1.12-3.12,1.2-4.58c.08-1.46.15-2.86.2-4.19.11-2.07-.17-3.89-.84-5.46-.66-1.57-1.55-2.92-2.67-4.07h-.05ZM347.8,185.07c-.59,1.38-1.36,2.51-2.31,3.39-.96.88-2.06,1.54-3.31,1.99-1.25.45-2.56.68-3.95.68-.27,0-.57-.08-.92-.24s-.81-.48-1.4-.96c-.05-.05-.09-.29-.12-.72-.03-.42-.05-.9-.08-1.43s-.04-1.06-.04-1.59v-1.28c0-.11.03-.77.08-1.99s.13-2.58.24-4.07c.11-1.75.21-3.67.32-5.74.05-.27.2-.48.44-.64s.49-.28.76-.36c.27-.08.49-.15.68-.2s.25-.08.2-.08c3.03,0,5.5.8,7.41,2.39,1.86,1.59,2.82,3.85,2.87,6.78-.11,1.49-.4,2.84-.88,4.07h.01Z"/>
    <path d="M414.69,175.91c-1.81-1.65-3.77-2.95-5.9-3.91s-4.25-1.69-6.38-2.19-4.14-.84-6.06-1c-1.91-.16-3.59-.24-5.02-.24-1.12,0-2.56.03-4.34.08s-3.65.11-5.62.16-3.91.11-5.82.16-3.56.08-4.94.08l.08,1.2c.05.59.08,1.01.08,1.27,0,.21.08.35.24.4,1.86.27,3.06.61,3.59,1.04s.82.93.88,1.51c0,.27.01.74.04,1.43.03.69.05,1.82.08,3.39.03,1.57.04,3.71.04,6.42v18.49c0,2.76-.01,5.38-.04,7.85s-.05,4.72-.08,6.74-.09,3.59-.2,4.7c0,.37-.08.85-.24,1.43-.16.58-.4,1.2-.72,1.83-.32.64-.74,1.24-1.28,1.79-.53.56-1.22,1-2.07,1.32-.05.05-.08.29-.08.72,0,.32.01.65.04,1s.04.62.04.84c3.93-.64,7.88-1.43,11.84-2.39s7.84-2.19,11.64-3.71c3.8-1.51,7.49-3.36,11.08-5.54s6.98-4.83,10.16-7.97c1.81-1.75,3.23-3.52,4.26-5.3,1.04-1.78,1.81-3.49,2.31-5.14s.81-3.16.92-4.54c.05-1.12.11-2.15.16-3.11,0-7.28-2.9-13.55-8.69-18.81h0ZM412.02,199.74c-.35,2.13-.92,4.2-1.71,6.22-.8,2.02-1.82,3.91-3.07,5.66s-2.78,3.27-4.58,4.54c-.9.64-2.21,1.53-3.91,2.67s-3.44,2.16-5.22,3.07c-1.78.9-3.39,1.49-4.82,1.75-1.43.27-2.34-.19-2.71-1.36-.32-1.12-.56-2.8-.72-5.06s-.28-4.8-.36-7.61c-.08-2.82-.12-5.77-.12-8.85v-9.09c0-2.18.01-4.34.04-6.5.03-2.15.08-4.1.16-5.86s.2-3.2.36-4.34c.16-1.14.37-1.79.64-1.95.43-.42,1.01-.77,1.75-1.04.74-.27,1.54-.4,2.39-.4h.08c.96,0,2.18.11,3.67.32,1.49.21,3.06.6,4.7,1.15,1.65.56,3.31,1.36,4.98,2.39,1.67,1.04,3.17,2.36,4.5,3.99,1.33,1.62,2.4,3.57,3.23,5.86.82,2.29,1.24,5,1.24,8.13,0,2.07-.17,4.17-.52,6.3h0Z"/>
    <path d="M401.53,192.97c-.43-.21-.84-.58-1.24-1.12-.4-.53-.76-1.08-1.08-1.63-.32-.56-.61-1.05-.88-1.47-.27-.42-.51-.64-.72-.64h-.8c-.21,0-.39.04-.52.12-.13.08-.25.28-.36.6-.32.53-.78,1.06-1.4,1.59-.61.53-1.22,1.02-1.83,1.47s-1.13.86-1.55,1.24c-.43.37-.64.72-.64,1.04,0,.53.37.96,1.12,1.28.53.27.96.7,1.28,1.31s.53.97.64,1.08c.85.9,1.47,1.63,1.87,2.19s.92.84,1.55.84c.74,0,1.17-.21,1.28-.64.27-.74.65-1.42,1.16-2.03.5-.61,1-1.14,1.47-1.59.48-.45.9-.81,1.28-1.08.37-.27.56-.42.56-.48,0-.74-.09-1.24-.28-1.47-.19-.24-.49-.44-.92-.6h0Z"/>
  </g>
</svg>