<?xml version="1.0" encoding="UTF-8"?>
<svg id="Layer_1" xmlns="http://www.w3.org/2000/svg" version="1.1" viewBox="0 0 200 200">
  <!-- Generator: Adobe Illustrator 29.7.1, SVG Export Plug-In . SVG Version: 2.1.1 Build 8)  -->
  <defs>
    <style>
      .st0 {
        fill: #e2001b;
      }
    </style>
  </defs>
  <g>
    <path class="st0" d="M144.15,26.55c-.86-.45-1.69-.96-2.54-1.44-.83-.47-.93-.45-1.38.5-2.22,4.72-4.84,9.25-7.6,13.69-2.47,3.98-5.16,7.85-7.81,11.73-1.42,2.08-3.16,3.91-5,5.64-.7.65-1.1.76-1.83.28-.77-.51-1.54-1.05-2.15-1.74-3.18-3.56-5.68-7.65-8.06-11.82-1.72-2.99-3.3-6.06-4.88-9.13-1.7-3.28-3.34-6.59-4.98-9.9-.1-.19-.1-.53,0-.72.74-1.27,1.57-2.5,2.29-3.78.77-1.36,1.18-2.85,1.01-4.29-.24-2.02-.7-4.01-2.25-5.39-.18-.16-.49-.21-.75-.24-.33-.04-.7.06-1.02-.02-.56-.12-1.1-.33-1.64-.5-1.28-.42-2.59-.39-3.91.28-1.83.91-3.35,2.19-4.33,4.03-.83,1.57-1.47,3.2-1.13,4.92.15.78.34,1.57.6,2.3.19.52.46,1.04.83,1.44,1.35,1.44,3.1,2.3,5.01,2.88.4.12.62.32.69.74.36,2.13.79,4.24,1.1,6.38.2,1.37.21,2.77.33,4.16.12,1.25.33,2.48.41,3.73.19,2.85.36,5.7.46,8.56.1,2.83.25,5.66.11,8.5-.12,2.59-.56,5.2-.94,7.8-.11.76-.31,1.75-.83,2.18-.62.53-1.66.8-2.46.78-1.15-.03-2.27-.4-3.37-.69-3.04-.8-5.92-1.9-8.59-3.46-3.46-2.02-6.97-3.95-10.43-5.97-1.83-1.07-3.58-2.25-5.36-3.39-1.03-.66-2.05-1.35-3.09-1.99-.51-.32-.5-.67-.21-1.23.73-1.42,1.16-2.89,1.06-4.42-.07-1.14-.2-2.28-.34-3.41-.02-.2-.14-.43-.3-.54-2.62-1.81-5.38-2.89-8.91-1.38-1.86.8-3.42,1.77-4.41,3.61-1.03,1.92-1.46,3.88-.9,5.86.65,2.27,2.08,3.89,4.18,4.87,1.19.56,2.45.81,3.84.15.49-.23,1.04-.31,1.52-.56.9-.47,1.47-.2,2.01.46,1.26,1.55,2.6,3.04,3.87,4.59,1.29,1.56,2.6,3.11,3.78,4.76,1.49,2.08,2.86,4.25,4.27,6.4.97,1.49,2.01,2.94,2.8,4.53.65,1.31.98,2.81,1.44,4.24.15.48,1.01,1.2,1.39,1.03.75-.34,1.14.07,1.58.46.17.15.33.29.5.44.07-.03.13-.06.2-.1-.03-.69-.07-1.38-.09-2.07-.05-1.96-.32-3.9-1.22-5.54-1.52-2.75-3.22-5.39-4.87-8.06-.39-.63-.86-1.21-1.29-1.81.04-.07.07-.13.11-.19.25.05.54.05.76.17,1.3.69,2.57,1.43,3.88,2.1,1.79.92,3.55,1.91,5.41,2.66,2.24.9,4.57,1.63,6.9,2.33,1.64.49,3.32.83,5.13.64,2.64-.28,4.64-1.85,5.56-4.42.82-2.3,1.24-4.64,1.38-7,.16-2.64.32-5.29.36-7.93.03-2.22-.08-4.44-.17-6.65-.06-1.46-.19-2.92-.3-4.37-.08-1.12-.2-2.23-.28-3.35-.03-.39.02-.8.04-1.19.08,0,.15-.02.23-.03.11.18.22.36.32.55.94,1.78,1.83,3.6,2.84,5.34,1.42,2.44,2.86,4.86,4.41,7.2,1.44,2.18,3.04,4.24,4.57,6.35,1.24,1.7,2.81,3.03,4.68,4,1.03.54,2.08.89,3.32.21.74-.4,1.62-.59,2.26-1.11,2.08-1.68,3.86-3.66,5.47-5.79,3.55-4.7,6.64-9.68,9.67-14.69.15-.24.36-.45.54-.68.07.67-.02,1.23-.04,1.79-.12,3.8-.22,7.6-.36,11.4-.04,1.08.21,2.01.92,2.74,1.03,1.04,2.07,2.07,3.13,3.07.15.14.46.13.8.21-.04-.53,0-.84-.09-1.11-.65-2.17-.71-4.49-.78-6.78-.1-3.09-.1-6.22.44-9.36.42-2.45.76-4.92,1.25-7.36.41-2.07.98-4.13,1.5-6.18.1-.41.09-.68-.29-.89h.02ZM56.59,51.2c-.42.46-1.15.66-1.75.95-1.16.56-2.13.46-3.2-.18-.92-.55-.92-1.42-1.27-2.21-.63-1.43.26-2.58,1.03-3.74.16-.24.54-.37.83-.5.41-.18.84-.31,1.26-.45,1.63-.91,3.02-.54,4.26.41.25.19.48.55.49.86.09,1.76-.38,3.45-1.65,4.85h0ZM96.33,20.1c-.11.2-.36.37-.57.47-.34.16-.7.26-1.06.39-1.73.61-3.16.24-4.13-1.06-.73-.97-.77-3.23.02-4.4.46-.69.99-1.38,1.61-1.91.64-.54,1.49-.75,2.25-.51.96.31,1.87.73,2.78,1.13.15.06.28.26.3.43.3,1.9-.18,3.71-1.21,5.46h0Z"/>
    <path class="st0" d="M107.46,79.7c.69,0,1.3,0,1.98.01-1.52,1.83-3.17,3.15-5.41,3.72-1.72.43-3.41,1.13-5.08,1.82-1.27.52-2.52,1.16-3.72,1.86-2.03,1.16-4.04,2.38-6.03,3.63-1.39.87-2.75,1.77-4.09,2.73-1.54,1.12-2.98,2.37-4.24,3.93,1.36.27,2.66.13,3.98-.15,1.5-.32,3.02-.57,4.53-.93.99-.23,1.98-.52,2.96-.84.52-.18,1.28-.45,2.24-.8l-.75,4.92c-2.88.97-5.16,1.61-6.5,1.78-1.66.35-3.32.71-4.99,1.01-1.69.31-3.12-.32-4.33-1.26-1.57-1.22-2.11-4.06-.44-6.18,1.47-1.87,3.25-3.39,5.08-4.86,2.23-1.79,4.62-3.3,7.09-4.66,1.68-.92,3.34-1.87,5.05-2.72,1.49-.74,3.02-1.42,4.56-2.03,1.74-.71,3.51-1.33,5.27-1.97,1.16-.42,1.98-.38,3.27.14-.14.29-.26.53-.43.87v-.02Z"/>
    <path class="st0" d="M147.92,69.49c-.21,1.51-1.19,2.8-2.4,3.86-1.29,1.14-2.56,2.31-3.91,3.39-.83.66-1.8,1.16-2.69,1.75-.26.17-.52.34-.78.52-.86.63-1.87,1.29-3,1.98-.17.11-.34.22-.51.32-.1.06-.2.13-.31.19-.26.16-.53.32-.8.47-.28.16-.55.3-.83.45-5.4,3.06-12.64,6.53-19.82,9.65-.25-.8-.58-1.58-.99-2.33-.31-.57-.67-1.08-1.09-1.53,5.76-2.49,11.91-5.39,17.1-8.39.25-.15.49-.28.72-.41,1.7-.97,3.4-1.94,5.12-2.88,3.32-1.81,6.32-4.14,9.31-6.47.83-.65.79-1.33-.06-1.79-1.47-.79-3.08-1.16-4.82-1.22-2.9-.09-5.8.36-8.7.86-2.09.36-4.15,1.09-6.25,1.52-5,1.03-9.79,3.06-14.63,4.78-2.04.72-4.01,1.74-5.99,2.65-2.03.93-4.06,1.86-6.07,2.84-1.01.5-1.98,1.13-2.98,1.65-.56.29-1.2.44-1.74.77-3.32,2.02-6.71,3.94-9.91,6.16-2.8,1.94-5.38,4.22-8.03,6.39-1.12.92-2.08,2.1-3.27,2.87-.88.57-1.68,1.16-2.41,1.9-.06.06-.17.08-.25.12-.62-.89-.68-1.79-.01-2.84.44-.7.74-1.48,1.08-2.24.65-1.48,1.68-2.62,3.01-3.56,4-2.82,7.96-5.68,11.99-8.47,1.49-1.03,3.08-1.87,4.63-2.79,1.5-.89,2.99-1.84,4.53-2.66,2.11-1.11,4.27-2.08,6.39-3.15,1.47-.74,2.91-1.53,4.37-2.29.21-.11.43-.21.65-.29.55-.21,1.11-.39,1.66-.59,1.89-.71,3.77-1.45,5.67-2.12,3.27-1.15,6.56-2.26,9.84-3.38.17-.06.36-.08.54-.12.81-.16,1.65-.2,2.42-.51,1.42-.58,2.88-.7,4.32-.88,2.65-.34,5.31-.59,7.96-.7,1.73-.07,3.44.17,5.17.26,1.56.08,2.86.68,3.97,1.64,1.34,1.16,2.08,2.73,1.81,4.59v.03Z"/>
    <path class="st0" d="M153.19,14.92c-.15-1.07-.8-1.9-1.47-2.77-.98-1.26-2.28-1.99-3.67-2.65-.81-.38-1.63-.46-2.55-.03-.6.28-1.24.44-1.85.67-.35.13-.77.21-1.02.45-1.74,1.69-3.07,3.63-3.13,6.01-.03,1.32.21,2.65.56,3.88.26.91.71,1.88,1.4,2.44,1.54,1.23,3.32,2.06,5.52,1.91,1.56-.11,3.01-.48,4.17-1.72,2.28-2.45,2.99-5.17,2.04-8.2h0ZM146.09,21.08c-.16,0-.29-.23-.52-.42-.04,0-.19.06-.38.11-.02-.2-.03-.34-.05-.5-.15,0-.35.08-.46.02-1.14-.67-1.88-2.74-1.37-4.07.29-.77.74-1.52,1.21-2.23.13-.19.59-.21.89-.28.91-.21,1.69-.21,2.49.37,1.35.98,1.93,1.72,2.06,3.43.18,2.26-1.8,3.69-3.89,3.58h.02Z"/>
  </g>
  <path class="st0" d="M89.39,187.94c-.17.6-.67,1.22-1.5,1.85s-1.58.98-2.25,1.05c-.83.09-1.54-.12-2.12-.64s-.87-1.19-.87-2.03c0-.08.02-.29.06-.63.04-.34.06-.55.06-.63l7.61-31.26-1,.11c-3.08,1.58-5.99,3.02-8.73,4.31-2.74,1.3-5.7,2.11-8.86,2.46-1.33.14-2.56,0-3.68-.41-1.12-.42-2.08-1.06-2.87-1.93s-1.41-1.88-1.87-3.04c-.46-1.15-.69-2.4-.69-3.73,0-2.58.46-5.14,1.37-7.69s2.22-4.88,3.93-6.97c1.7-2.1,3.7-3.85,5.99-5.26,2.29-1.41,4.8-2.27,7.55-2.57,2.16-.23,4.28-.19,6.36.12,2.08.32,3.99,1.09,5.74,2.31l1.12-2.62,5.49-35.77c.17-.68.62-1.42,1.37-2.21s1.41-1.21,2-1.28c1.5-.16,2.56.33,3.18,1.46.62,1.14.94,2.37.94,3.7v.5l-6.86,40.41v2.74c.17-.02.31,0,.44.08.12.07.23.06.31-.03.08,0,.27-.13.56-.37.29-.24.62-.5,1-.79l1.12-.87c.37-.29.64-.53.81-.71.08,0,.21-.08.37-.23.17-.14.29-.26.37-.35,5.24-4.39,10.46-8.91,15.65-13.55,5.2-4.64,10.08-9.58,14.66-14.81.58-.64,1.45-1.92,2.62-3.84,1.16-1.91,2.43-3.9,3.8-5.96,1.37-2.06,2.68-3.91,3.93-5.54s2.29-2.49,3.12-2.58,1.56.12,2.18.64c.62.51.94,1.23.94,2.14,0,.17-.02.29-.06.38s-.06.17-.06.26c0,.17-.08.49-.25.96-.17.48-.29.8-.37.98-.25.53-.65,1.25-1.19,2.19-.54.93-1.08,1.84-1.62,2.73s-1.02,1.67-1.43,2.34c-.42.67-.62,1.05-.62,1.13l-15.72,17.55-28.69,24.32c-.33.37-.52.62-.56.75s-.06.4-.06.82v.62c0,.17.04.29.12.36l23.57,32.99c.17.73.46,1.32.87,1.78.42.45.83.89,1.25,1.3s.77.87,1.06,1.38c.29.51.44,1.14.44,1.89,0,.91-.15,1.45-.44,1.61-.29.16-.89.28-1.81.38s-1.79-.06-2.62-.46c-.83-.41-1.62-.97-2.37-1.68-.75-.71-1.39-1.51-1.93-2.41-.54-.9-.94-1.71-1.19-2.43l-21.7-24.71-7.98,29.43v-.04ZM68.69,151.02c0,1.5.33,2.81,1,3.95.66,1.13,1.83,1.61,3.49,1.43s3.33-.57,4.99-1.17c1.66-.6,3.28-1.31,4.86-2.15s3.12-1.75,4.61-2.75c1.5-.99,2.91-1.94,4.24-2.83,0-.17.02-.52.06-1.07.04-.54.06-.86.06-.94,0-1.41-.35-2.64-1.06-3.69s-1.58-1.91-2.62-2.58c-1.04-.68-2.2-1.13-3.49-1.37-1.29-.23-2.56-.28-3.8-.15-1.66.18-3.24.64-4.74,1.39-1.5.74-2.81,1.72-3.93,2.92s-2.02,2.57-2.68,4.09c-.67,1.53-1,3.16-1,4.91h.01Z"/>
</svg>