<?xml version="1.0" encoding="UTF-8"?>
<svg id="Layer_1" xmlns="http://www.w3.org/2000/svg" version="1.1" viewBox="0 0 686.99 300">
  <!-- Generator: Adobe Illustrator 29.7.1, SVG Export Plug-In . SVG Version: 2.1.1 Build 8)  -->
  <defs>
    <style>
      .st0 {
        fill: #58348c;
      }
    </style>
  </defs>
  <path d="M-2910.56-671.36c2.18,11.45-3.12,6.42-8.74,9.04-5.43,2.53-31.77,14-35.21,10.91,2.09-19.91,28.75-20.63,43.95-19.95h0Z"/>
  <polygon points="-3046.71 -583.22 -3038.53 -559.42 -3066.42 -573.4 -3046.71 -583.22"/>
  <polygon points="-3402.48 -983.32 -3398.44 -967.34 -3410.39 -971.3 -3412.37 -959.34 -3422.43 -979.26 -3402.48 -983.32"/>
  <path d="M-2990.56,1008.23c-12-1.54-9.3-28.13-1.96-27.91,9.99.3,2.21,22.33,1.96,27.91Z"/>
  <path d="M-2738.6-1167.22l-31.97,15.92c5.3-11.93,20.01-15.57,31.97-15.92Z"/>
  <path d="M-3054.51-463.39c-4.89,7.84-6.42,19.64-15.95,23.95-.44-9.44,3.66-24.88,15.95-23.95Z"/>
  <path d="M-3746.37-391.42c2.02,12.79-6.85,22.33-15.9,9.98l9.98-9.96,5.92-.02h0Z"/>
  <polygon points="-3422.81 -942.94 -3424.4 -931.34 -3438.42 -947.27 -3422.81 -942.94"/>
  <polygon points="-3038.51 -483.38 -3042.96 -471.93 -3054.51 -471.46 -3050.06 -482.91 -3038.51 -483.38"/>
  <path d="M-2786.62-355.48h-3.9l-4.03-15.95c12.93.02,11.72,5.64,7.93,15.95Z"/>
  <path d="M-2938.53-531.45c-7.46,1.07-13.86.03-15.99-7.92,7.46-1.07,13.86-.03,15.99,7.92Z"/>
  <polygon points="-2726.58 -1063.25 -2738.54 -1051.29 -2738.56 -1063.27 -2726.58 -1063.25"/>
  <g>
    <g>
      <path class="st0" d="M459.68,184.88h2.71c.96,0,1.83-.57,2.21-1.46l24.4-57.43,21.87,51.53h-35.92c-1.32,0-2.4,1.07-2.4,2.4v2.56c0,1.32,1.07,2.4,2.4,2.4h43.37c1.72,0,2.88-1.75,2.21-3.33l-29.32-69.19c-.83-1.95-3.59-1.95-4.41,0l-29.32,69.19c-.67,1.58.49,3.33,2.21,3.33h0Z"/>
      <path class="st0" d="M537.59,165.62c2.09-3.11,4.73-5.93,7.85-8.36,3.23-2.52,6.83-5.29,10.7-8.24,3.81-2.9,7.43-5.73,10.76-8.4,3.44-2.77,6.35-6,8.65-9.6,2.39-3.74,3.61-7.61,3.61-11.49,0-8.31-2.2-14.46-6.54-18.27-4.27-3.75-11.13-5.64-20.39-5.64-6.61,0-12.04,1.77-16.15,5.26-4.06,3.45-7.01,8.72-8.79,15.66h0c-.19.73.08,1.5.69,1.96l11.7,8.81h6.03c1.96,0,2.79-2.49,1.22-3.66l-11.53-8.65c1.52-4.29,3.58-7.34,6.14-9.09,2.84-1.94,6.44-2.93,10.69-2.93,3.08,0,5.7.19,7.8.57,2.01.37,4.06,1.1,6.09,2.16,1.84.97,3.2,2.51,4.16,4.7,1.02,2.32,1.53,5.4,1.53,9.13,0,2.56-1,5.28-2.97,8.08-2.09,2.96-4.74,5.69-7.86,8.09-3.22,2.47-6.73,5.19-10.73,8.32-3.84,3-7.46,5.91-10.76,8.65-3.44,2.85-6.35,6.21-8.65,9.98-2.38,3.89-3.59,7.91-3.59,11.94v7.92c0,1.31,1.06,2.38,2.38,2.38h46.75c1.28,0,2.31-1.04,2.31-2.31v-2.73c0-1.28-1.04-2.31-2.31-2.31h-41.78v-2.95c0-2.98,1.01-5.99,3-8.96v-.02h-.01Z"/>
      <path class="st0" d="M634.58,111.28h-43.76c-1.05,0-1.9.85-1.9,1.9v3.55c0,1.05.85,1.9,1.9,1.9h34.31l-36.66,63.4c-.73,1.27.18,2.85,1.65,2.85h44.97c1.05,0,1.9-.85,1.9-1.9v-3.55c0-1.05-.85-1.9-1.9-1.9h-35.52l36.66-63.4c.73-1.27-.18-2.85-1.65-2.85h0Z"/>
    </g>
    <g>
      <path class="st0" d="M167.22,186.73h-2.35c0-3.88,1.18-11.3,3.53-22.27s3.53-17.2,3.53-18.68c0-2.72-1.16-5.61-3.46-8.66l-1.11-1.48.12-1.61c4.45-1.24,11.59-1.86,21.4-1.86,1.07,1.4,1.65,3.96,1.73,7.67,7.17-5.52,13.24-8.29,18.19-8.29,2.97,0,5.34,1.03,7.11,3.09s2.66,4.64,2.66,7.73-.95,8.43-2.85,16.02c-1.9,7.59-2.85,12.68-2.85,15.28s.33,3.9.99,3.9c.49,0,2.23-.78,5.2-2.35l1.48-.74,2.23,4.33c-.74.66-1.73,1.48-2.97,2.47s-3.53,2.33-6.87,4.02-6.33,2.54-8.97,2.54c-6.02,0-9.03-3.42-9.03-10.27,0-2.89.93-8.21,2.78-15.96,1.86-7.75,2.78-12.74,2.78-14.97s-.7-3.34-2.1-3.34c-2.39,0-5.32,1.03-8.78,3.09-.25,1.4-1.07,5.11-2.47,11.13-2.89,12.95-4.33,22.1-4.33,27.46-2.89,1.16-8.08,1.73-15.59,1.73v.02h0Z"/>
      <path class="st0" d="M258.52,208.13c-3.05,2.06-5.98,3.57-8.78,4.51-2.8.95-5.53,1.42-8.16,1.42s-4.78-.74-6.43-2.23c-1.65-1.48-2.47-3.61-2.47-6.37s1.77-5.38,5.32-7.86c3.55-2.47,7.05-4.17,10.52-5.07l5.32-1.24,1.86-9.9c-4.78,3.63-9.38,5.44-13.79,5.44s-8-1.69-10.76-5.07-4.14-8.78-4.14-16.21c0-9.73,2.18-17.83,6.56-24.31,4.37-6.47,10.14-9.71,17.32-9.71,4.04,0,8.04.99,12,2.97,4.21-1.48,8.74-2.23,13.61-2.23l2.6.12c.25.99.37,2.39.37,4.21,0,7.26-2.6,23.55-7.79,48.87-.91,5.2-2.56,9.75-4.95,13.67s-5.11,6.91-8.16,8.97l-.05.02h0ZM238.23,205.16c0,1.57.93,2.35,2.78,2.35s3.9-1.05,6.12-3.15c2.23-2.1,4-4.68,5.32-7.73-2.72.33-5.77,1.34-9.15,3.03-3.38,1.69-5.07,3.53-5.07,5.51h0ZM256.42,138.86c-3.55,0-6.35,2.87-8.41,8.6-2.06,5.73-3.09,12.08-3.09,19.05s1.57,10.45,4.7,10.45c2.06,0,4.49-.78,7.3-2.35,2.31-13.86,3.96-25.28,4.95-34.27-2.31-.99-4.13-1.48-5.44-1.48h-.01Z"/>
      <path class="st0" d="M293.34,187.85c-2.84,0-5.2-.95-7.05-2.85-1.86-1.9-2.78-4.56-2.78-7.98s2.04-14.35,6.12-32.78c4.08-18.43,6.12-31.73,6.12-39.9l-.74-5.44c6.43-2.23,12.45-3.34,18.06-3.34.82,1.16,1.24,3.18,1.24,6.06,0,6.6-2.08,19.36-6.25,38.29-4.17,18.93-6.25,29.94-6.25,33.03s.37,4.64,1.11,4.64l8.66-3.09,2.23,4.33c-2.8,2.23-6.21,4.29-10.21,6.19-4,1.9-7.42,2.85-10.27,2.85h0Z"/>
      <path class="st0" d="M342.27,139.23c0,3.46-1.11,9.42-3.34,17.88-2.23,8.45-3.34,13.98-3.34,16.58s.37,3.9,1.11,3.9c.49,0,2.39-.78,5.69-2.35l1.48-.74,2.1,4.33c-.74.66-1.73,1.48-2.97,2.47s-3.55,2.33-6.93,4.02-6.52,2.54-9.4,2.54-5.16-.89-6.8-2.66c-1.65-1.77-2.47-4.16-2.47-7.17s1.03-8.37,3.09-16.08,3.09-12.72,3.09-15.03c0-3.46-1.07-6.72-3.22-9.77l-1.11-1.48.12-1.61c4.37-1.24,11.46-1.86,21.28-1.86,1.07,1.24,1.61,3.59,1.61,7.05v-.02h0ZM328.17,118.63c-1.65-1.61-2.47-3.77-2.47-6.5s1.13-5.11,3.4-7.17,4.89-3.09,7.86-3.09,5.28.83,6.93,2.47c1.65,1.65,2.47,3.82,2.47,6.49s-1.18,5.05-3.53,7.11-4.97,3.09-7.86,3.09-5.16-.8-6.8-2.41h0Z"/>
      <path class="st0" d="M388.54,170.15c0,5.2-2.29,9.44-6.87,12.74s-9.79,4.95-15.65,4.95-10.5-1.24-13.92-3.71-5.13-4.66-5.13-6.56c0-1.15,1.44-3.03,4.33-5.63,2.89-2.6,5.32-4.18,7.3-4.76,4.12,3.05,7.5,7.88,10.14,14.47,3.05-.25,4.58-1.69,4.58-4.33,0-3.79-3.34-9.17-10.02-16.14s-10.02-12.51-10.02-16.64,1.86-7.32,5.57-9.59c3.71-2.27,8.18-3.4,13.42-3.4s9.17.93,11.81,2.78c2.64,1.86,3.96,4.37,3.96,7.55s-2.52,7.57-7.55,13.18c.58.58,1.32,1.34,2.23,2.29s2.1,2.74,3.59,5.38c1.48,2.64,2.23,5.11,2.23,7.42h0ZM381.86,141.95c0-2.89-1.98-4.33-5.94-4.33-1.9,0-3.46.39-4.7,1.18-1.24.78-1.86,1.67-1.86,2.66,0,1.81,1.81,4.37,5.44,7.67l1.86,1.61c3.46-2.97,5.2-5.9,5.2-8.78h0Z"/>
      <path class="st0" d="M408.7,104.71c0-2.72-.25-4.66-.74-5.81,6.43-2.23,12.5-3.34,18.19-3.34.74.74,1.11,2.64,1.11,5.69,0,5.44-2.31,17.98-6.93,37.61,6.68-4.87,12.54-7.3,17.57-7.3,3.13,0,5.51.99,7.11,2.97,1.61,1.98,2.41,4.6,2.41,7.86s-.95,8.58-2.84,15.96c-1.9,7.38-2.85,12.43-2.85,15.15s.33,4.08.99,4.08,2.39-.74,5.2-2.23l1.48-.74,2.23,4.33c-.74.66-1.73,1.48-2.97,2.47s-3.51,2.31-6.8,3.96c-3.3,1.65-6.33,2.47-9.09,2.47s-4.97-.89-6.62-2.66-2.47-4.16-2.47-7.17.93-8.49,2.78-16.45c1.86-7.96,2.78-12.99,2.78-15.09s-.87-3.15-2.6-3.15c-2.15,0-4.82.91-8.04,2.72-4.54,19.96-6.8,32.91-6.8,38.85-3.46,1.32-9.36,1.98-17.69,1.98-.08-1.4-.12-2.64-.12-3.71,0-3.55,2.45-15.67,7.36-36.37,4.91-20.7,7.36-34.72,7.36-42.06v-.02h-.01Z"/>
    </g>
    <path class="st0" d="M180.49,73.06c-4.76,0-9.6.9-14.53,2.71,6.89,5.91,10.34,13.17,10.34,21.79s-2.5,16.37-7.51,23.27c-5.01,6.89-11.2,10.34-18.59,10.34s-13.26-2.3-17.6-6.89c-4.35-4.59-6.52-10.67-6.52-18.22s2.3-14.61,6.89-21.18c-6.07,1.64-11.08,5.46-15.02,11.45s-5.91,13.5-5.91,22.53,1.31,16.66,3.94,22.9c5.74-.82,11.78-1.23,18.1-1.23s12.15,1.6,17.48,4.8,8,7.68,8,13.42-2.38,10.63-7.14,14.65c-4.76,4.02-11.08,6.03-18.96,6.03s-17.15-3.12-27.82-9.36c-5.58,7.39-8.37,14.9-8.37,22.53s2.22,13.58,6.65,17.85,10.26,6.4,17.48,6.4c14.93,0,29.46-7.71,43.58-23.14l10.59,8.86c-3.29,5.26-7.59,10.51-12.93,15.76-5.34,5.26-10.46,9.52-15.39,12.8-4.92,3.29-11.2,6.16-18.84,8.62-7.63,2.46-15.47,3.69-23.51,3.69-15.27,0-28.23-3.82-38.9-11.45-10.67-7.63-16-19.41-16-35.33,0-9.36,3.08-17.85,9.23-25.48,6.16-7.63,14.32-13.99,24.5-19.08-9.03-10.34-13.54-21.91-13.54-34.72,0-16.25,6.32-28.93,18.96-38.04s27.25-13.67,43.83-13.67c6.24,0,11.9.74,16.99,2.22,11.33-7.55,23.43-11.33,36.32-11.33s22.12,3.37,27.7,10.09c-.33,5.75-2.14,10.51-5.42,14.28l-1.72,1.97c-6.07-6.56-14.86-9.85-26.35-9.85h0ZM134.44,153.57c-3.29,0-6.65.66-10.09,1.97,3.61,4.92,7.79,7.39,12.56,7.39s7.14-1.48,7.14-4.43c0-3.28-3.2-4.92-9.6-4.92h0ZM156.85,101.62c0-7.22-2.46-12.31-7.39-15.27-4.76,5.58-7.14,11.78-7.14,18.59s2.22,10.22,6.65,10.22c2.3,0,4.19-1.27,5.66-3.82,1.48-2.54,2.22-5.79,2.22-9.73h0Z"/>
  </g>
</svg>