<?xml version="1.0" encoding="UTF-8"?>
<svg id="Layer_1" xmlns="http://www.w3.org/2000/svg" version="1.1" viewBox="0 0 377.29 300">
  <!-- Generator: Adobe Illustrator 29.7.1, SVG Export Plug-In . SVG Version: 2.1.1 Build 8)  -->
  <defs>
    <style>
      .st0 {
        font-family: Montserrat-ExtraBold, Montserrat;
        font-size: 43.59px;
        font-weight: 700;
        letter-spacing: .05em;
      }
    </style>
  </defs>
  <text class="st0" transform="translate(50 232.96)"><tspan x="0" y="0">DSJ Textile</tspan></text>
  <path d="M187.42,127.81c-7.74,0-14.58-.87-20.32-2.58-.89-.26-1.75-.54-2.61-.84v13.04h-39.63c-4.73,0-9.11-.63-13.13-1.9-4.02-1.27-7.46-3.05-10.32-5.36-2.86-2.32-5.12-5.09-6.77-8.34-1.65-3.25-2.48-6.86-2.48-10.82s.83-7.43,2.48-10.73c1.65-3.3,3.96-6.13,6.93-8.5,2.98-2.37,6.45-4.24,10.41-5.62,3.96-1.37,8.26-2.06,12.88-2.06h15.04c.47-3.9,1.45-7.6,2.91-11.02,2.23-5.22,5.72-9.71,10.36-13.34,2.09-1.63,4.44-3.09,7.06-4.37h-35.37c-9.68,0-18.6,1.32-26.75,3.96-8.15,2.64-15.16,6.36-21.06,11.15-5.88,4.79-10.48,10.51-13.79,17.17-3.3,6.66-4.95,13.95-4.95,21.88s1.68,15.5,5.04,22.37c3.36,6.88,7.98,12.83,13.87,17.84,5.9,5.01,12.91,8.94,21.05,11.8,8.15,2.87,17.01,4.29,26.59,4.29h73.97v-38.01h-11.42Z"/>
  <path d="M156.04,112.66c3.41,2.75,7.7,4.9,12.88,6.44,5.17,1.54,11.34,2.31,18.49,2.31h60.11c4.07,0,7.04.61,8.92,1.82,1.87,1.21,2.81,3.25,2.81,6.11,0,.53-.04,1.02-.11,1.49,3.01-.17,5.7-.46,8.02-.86,3.57-.62,6.37-1.57,8.32-2.85,1.62-1.06,2.72-2.33,3.38-3.89.82-1.95,1.23-4.5,1.23-7.59v-9.72c-6.97-4.3-16.73-6.46-29.28-6.46h-60.11c-3.96,0-6.91-.58-8.83-1.73-1.93-1.16-2.89-3.16-2.89-6.03s.96-4.84,2.89-5.94c1.92-1.1,4.87-1.65,8.83-1.65h89.38v-28.73h-86.74c-8.37,0-15.55.83-21.55,2.48-6,1.65-10.9,3.96-14.7,6.94-3.8,2.97-6.6,6.58-8.42,10.82-1.82,4.24-2.72,8.95-2.72,14.12,0,4.73.83,9.06,2.48,12.96,1.65,3.91,4.18,7.24,7.6,9.99Z"/>
  <path d="M286.5,115.63c0,2.09-.16,4.02-.49,5.78-.28,1.57-.7,3-1.25,4.29-.4.96-.9,1.85-1.49,2.69-1.1,1.57-2.53,2.93-4.29,4.08-2.7,1.76-6.27,3.03-10.73,3.79-4.46.77-9.93,1.16-16.43,1.16h-46.59v28.4h46.59c36.31,0,58.29-10.42,65.95-31.25,1.31-3.56,2.2-7.42,2.67-11.59.27-2.35.4-4.81.4-7.35v-24.56h-34.35v24.56ZM286.5,55.35v28.74h34.35v-28.74h-34.35Z"/>
</svg>