<?xml version="1.0" encoding="UTF-8"?>
<svg id="Layer_1" xmlns="http://www.w3.org/2000/svg" version="1.1" viewBox="0 0 670.22 300">
  <!-- Generator: Adobe Illustrator 29.7.1, SVG Export Plug-In . SVG Version: 2.1.1 Build 8)  -->
  <defs>
    <style>
      .st0 {
        font-family: Gotham-Book, Gotham;
        font-size: 41.76px;
        letter-spacing: .39em;
      }

      .st0, .st1, .st2 {
        isolation: isolate;
      }

      .st2 {
        font-family: Gotham-Bold, Gotham;
        font-size: 83.53px;
        font-weight: 700;
      }
    </style>
  </defs>
  <g>
    <g>
      <path d="M110.15,154.15c-.32,0-.65-.1-.92-.3-.03-.02-3.13-2.27-8.18-4.48-4.63-2.03-11.9-4.44-20.25-4.44-.62,0-1.18-.37-1.42-.93-.25-.57-.14-1.23.28-1.68l13.25-14.29c.31-.34.76-.52,1.22-.5.23.01,5.68.31,13.38,1.46,7.12,1.06,17.53,3.09,26.72,6.7.54.21.92.71.98,1.29s-.21,1.14-.69,1.46l-23.51,15.46c-.26.17-.56.26-.85.26h0ZM84.24,141.94c2.84.2,5.71.66,8.58,1.36,3.22.79,6.43,1.88,9.56,3.26,3.76,1.65,6.47,3.3,7.78,4.16l20.07-13.19c-8.16-2.85-16.94-4.52-23.15-5.46-5.98-.89-10.67-1.27-12.4-1.39,0,0-10.44,11.26-10.44,11.26Z"/>
      <path d="M94.04,194.15c-.43,0-.84-.18-1.14-.5l-13.25-14.29c-.42-.45-.53-1.11-.28-1.68.25-.57.81-.93,1.42-.93,8.35,0,15.62-2.42,20.25-4.44,5.05-2.21,8.15-4.46,8.18-4.48.52-.38,1.23-.4,1.77-.04l23.51,15.46c.49.32.75.88.69,1.46s-.44,1.07-.98,1.29c-9.19,3.61-19.61,5.63-26.72,6.7-7.7,1.15-13.15,1.45-13.38,1.46h-.08.01ZM84.24,179.74l10.44,11.26c1.73-.12,6.42-.5,12.4-1.39,6.21-.93,14.99-2.61,23.15-5.46l-20.07-13.19c-1.32.86-4.02,2.51-7.78,4.16-3.13,1.37-6.34,2.47-9.56,3.26-2.87.7-5.74,1.16-8.58,1.36h0Z"/>
      <rect x="79.24" y="143.37" width="3.11" height="34.94"/>
      <rect x="90.67" y="144.73" width="3.11" height="32.08"/>
    </g>
    <path d="M107.23,246.87c-7.72,0-15.22-1.51-22.27-4.5-3.39-1.43-6.66-3.21-9.72-5.28-3.03-2.05-5.88-4.4-8.47-6.99s-4.94-5.44-6.99-8.47c-2.07-3.06-3.84-6.33-5.28-9.72-2.98-7.06-4.5-14.55-4.5-22.27v-57.63c0-7.72,1.51-15.22,4.5-22.27,1.43-3.39,3.21-6.66,5.28-9.72,2.05-3.03,4.4-5.88,6.99-8.47,2.59-2.59,5.44-4.94,8.47-6.99,3.06-2.07,6.33-3.84,9.72-5.28,7.06-2.98,14.55-4.5,22.27-4.5s15.22,1.51,22.27,4.5c3.39,1.43,6.66,3.21,9.72,5.28,3.03,2.05,5.88,4.4,8.47,6.99s4.94,5.44,6.99,8.47c2.07,3.06,3.84,6.33,5.28,9.72,2.98,7.06,4.5,14.55,4.5,22.27v57.63c0,7.72-1.51,15.22-4.5,22.27-1.43,3.39-3.21,6.66-5.28,9.72-2.05,3.03-4.4,5.88-6.99,8.47-2.59,2.59-5.44,4.94-8.47,6.99-3.06,2.07-6.33,3.84-9.72,5.28-7.06,2.98-14.55,4.5-22.27,4.5ZM107.23,79.47c-28.98,0-52.55,23.57-52.55,52.55v57.63c0,28.98,23.57,52.55,52.55,52.55h0c28.98,0,52.55-23.57,52.55-52.55v-57.63c0-28.98-23.57-52.55-52.55-52.55Z"/>
  </g>
  <g class="st1">
    <text class="st2" transform="translate(190.8 168.38)"><tspan x="0" y="0">COUTURE</tspan></text>
    <text class="st0" transform="translate(193.79 212)"><tspan x="0" y="0">COLLECTIVE</tspan></text>
  </g>
</svg>