<?xml version="1.0" encoding="UTF-8"?>
<svg id="Layer_1" xmlns="http://www.w3.org/2000/svg" version="1.1" viewBox="0 0 200 200">
  <!-- Generator: Adobe Illustrator 29.7.1, SVG Export Plug-In . SVG Version: 2.1.1 Build 8)  -->
  <defs>
    <style>
      .st0 {
        fill: #46d8f9;
      }

      .st1 {
        fill: #1c2836;
      }
    </style>
  </defs>
  <path class="st0" d="M116.05,127.87c-2.78-7.23-8.02-12.83-14.06-17.76-5.05-4.12-10.33-8.02-14.95-12.52-9.45-9.15-15.26-20.18-16.67-33.06-1.65-15.02,3.3-28.17,13.52-39.52,3.36-3.74,7.38-6.97,11.12-10.45h-1.14c-13.14,0-26.27-.05-39.43.02-3.9.02-7.67.52-11.24,1.45.54.74,1.03,1.45,1.45,2.07,2.66,4.05,3.59,7.58,3.66,10.88s-.47,15.56-.47,15.56c0,0,.98.47.88,1.48-.18,1.89-1.06,3.07-1.06,3.07-1.04,10.81-.31,19.25-.1,20.93s.38,2.71.63,2.72c.25.03.54-.21.55-.46.03-.25-.22-.28-.13-1.29.1-1.01.88-1.18,1.39-1.13,3.02.28,6.33.1,9.31-.38s5.16-1.48,5.66-1.43.6.44.55.95c-.26,2.76-3.07,5.55-5.7,7.7-2.61,2.15-6.5,2.94-7.64,2.96s-2.35.78-3.56,1.31c-.25,2.64,1.96,7.42,2.97,10.06,1.03,2.64,1.55,7.64,1.06,12.8s-2.32,5.61-3.32,5.52c0,0-6.73-.7-11.59-9.6s-5.5-15.56-5.5-15.56c-5.13.54-7.89-1.01-10.19-2.35-2.28-1.35-3.12-3.22-3.07-3.85.06-.63.7-.69,1.47-.75,7.43-.82,10.39-2.56,11.35-3.23.41-4.28,1.06-9.67,2.4-14.62s3.08-9.73,4.24-12.67c1.16-2.94,3.28-9.19,3.72-13.73.42-4.52-.08-7.25-.33-9.94s.16-4.29.16-4.29c0,0-.55-.88-1.27-2.01-16.79,5.37-28.62,20.31-28.65,38.29-.03,24.64-.03,49.25-.03,73.88,2.66-1.27,5.73-2.68,8.02-3.51,4.56-1.68,8.19-1.81,11.43-1.13s15.06,3.93,15.06,3.93c0,0,.67-.83,1.63-.52,1.79.6,2.75,1.71,2.75,1.71,10.32,3.43,18.71,4.6,20.37,4.77,1.68.16,2.72.23,2.79,0s-.08-.57-.31-.64-.31.16-1.27-.16-.96-1.11-.8-1.6c.96-2.87,1.5-6.14,1.7-9.15s-.28-5.34-.13-5.83.57-.49,1.04-.31c2.64.88,4.72,4.23,6.24,7.26s1.42,6.99,1.16,8.11c-.23,1.11.23,2.48.49,3.76,2.51.83,7.67-.25,10.47-.66s7.8.19,12.7,1.83c4.92,1.63,4.95,3.51,4.64,4.46,0,0-2.19,6.4-11.95,9.15s-16.39,1.89-16.39,1.89c-.63,5.11-2.75,7.46-4.57,9.4-1.84,1.91-3.84,2.33-4.44,2.12s-.52-.83-.41-1.6c.87-7.43-.18-10.71-.62-11.79-4.07-1.35-9.19-3.17-13.71-5.61s-8.79-5.17-11.4-6.98c-2.6-1.79-8.24-5.27-12.54-6.69s-7.07-1.54-9.75-1.9-4.15-1.11-4.15-1.11c0,0-4.67,1.65-6.95,2.48-.3.11-.67.26-1.1.46v15.3c.03,19.32,15.2,36.05,35.31,38.55,6.04.75,12.25.6,18.36.6,15.94-.03,29.7-5.58,40.73-16.31,12.01-11.66,15.59-25.62,9.55-41.26v.05l.04-.05.02-.07h0Z"/>
  <path class="st1" d="M83.95,72.13c2.78,7.23,8.02,12.83,14.06,17.76,5.05,4.12,10.33,8.02,14.95,12.52,9.45,9.15,15.26,20.18,16.67,33.06,1.65,15.02-3.3,28.17-13.52,39.52-3.36,3.74-7.38,6.97-11.12,10.45h1.14c13.14,0,26.27.05,39.43-.02,3.9-.02,7.67-.52,11.24-1.45-.54-.74-1.03-1.45-1.45-2.07-2.66-4.05-3.59-7.58-3.66-10.88-.06-3.3.47-15.56.47-15.56,0,0-.98-.47-.88-1.48.18-1.89,1.06-3.07,1.06-3.07,1.04-10.81.31-19.25.1-20.93s-.38-2.71-.63-2.72c-.25-.03-.54.21-.55.46-.03.25.22.28.13,1.29-.1,1.01-.88,1.18-1.39,1.13-3.02-.28-6.33-.1-9.31.38-2.97.47-5.16,1.48-5.66,1.43s-.6-.44-.55-.95c.26-2.76,3.07-5.55,5.7-7.7,2.61-2.15,6.5-2.94,7.64-2.96s2.35-.78,3.56-1.31c.25-2.64-1.96-7.42-2.97-10.06-1.03-2.64-1.55-7.64-1.06-12.8s2.32-5.61,3.32-5.52c0,0,6.73.7,11.59,9.6s5.5,15.56,5.5,15.56c5.13-.54,7.89,1.01,10.19,2.35,2.28,1.35,3.12,3.22,3.07,3.85-.06.63-.7.69-1.47.75-7.43.82-10.39,2.56-11.35,3.23-.41,4.28-1.06,9.67-2.4,14.62s-3.08,9.73-4.24,12.67-3.28,9.19-3.72,13.73c-.42,4.52.08,7.25.33,9.94s-.16,4.29-.16,4.29c0,0,.55.88,1.27,2.01,16.79-5.37,28.62-20.31,28.65-38.29.03-24.64.03-49.25.03-73.88-2.66,1.27-5.73,2.68-8.02,3.51-4.56,1.68-8.19,1.81-11.43,1.13s-15.06-3.93-15.06-3.93c0,0-.67.83-1.63.52-1.79-.6-2.75-1.71-2.75-1.71-10.32-3.43-18.71-4.6-20.37-4.77-1.68-.16-2.72-.23-2.79,0s.08.57.31.64.31-.16,1.27.16c.96.31.96,1.11.8,1.6-.96,2.87-1.5,6.14-1.7,9.15s.28,5.34.13,5.83c-.16.49-.57.49-1.04.31-2.64-.88-4.72-4.23-6.24-7.26s-1.42-6.99-1.16-8.11c.23-1.11-.23-2.48-.49-3.76-2.51-.83-7.67.25-10.47.66s-7.8-.19-12.7-1.83c-4.92-1.63-4.95-3.51-4.64-4.46,0,0,2.19-6.4,11.95-9.15s16.39-1.89,16.39-1.89c.63-5.11,2.75-7.46,4.57-9.4,1.84-1.91,3.84-2.33,4.44-2.12s.52.83.41,1.6c-.87,7.43.18,10.71.62,11.79,4.07,1.35,9.19,3.17,13.71,5.61s8.79,5.17,11.4,6.98c2.6,1.79,8.24,5.27,12.54,6.7,4.33,1.43,7.07,1.54,9.75,1.9s4.15,1.11,4.15,1.11c0,0,4.67-1.65,6.95-2.48.3-.11.67-.26,1.1-.46v-15.3c-.03-19.32-15.2-36.05-35.31-38.55-6.04-.75-12.25-.6-18.36-.6-15.94.03-29.7,5.58-40.73,16.31-12.01,11.66-15.59,25.62-9.55,41.26v-.05l-.04.04-.02.07h0Z"/>
</svg>